<svg width="24" height="24" viewBox="0 0 24 24" fill="none" xmlns="http://www.w3.org/2000/svg">
<path d="M15.75 13.5C15.75 14.2417 15.5301 14.9667 15.118 15.5834C14.706 16.2001 14.1203 16.6807 13.4351 16.9645C12.7498 17.2484 11.9958 17.3226 11.2684 17.1779C10.541 17.0333 9.8728 16.6761 9.34835 16.1517C8.8239 15.6272 8.46675 14.959 8.32206 14.2316C8.17736 13.5042 8.25162 12.7502 8.53545 12.0649C8.81928 11.3797 9.29993 10.794 9.91661 10.382C10.5333 9.96993 11.2583 9.75 12 9.75C12.9946 9.75 13.9484 10.1451 14.6517 10.8483C15.3549 11.5516 15.75 12.5054 15.75 13.5ZM6 5.25C5.40666 5.25 4.82664 5.42595 4.33329 5.75559C3.83994 6.08524 3.45543 6.55377 3.22836 7.10195C3.0013 7.65013 2.94189 8.25333 3.05765 8.83527C3.1734 9.41721 3.45912 9.95176 3.87868 10.3713C4.29824 10.7909 4.83279 11.0766 5.41473 11.1924C5.99667 11.3081 6.59987 11.2487 7.14805 11.0216C7.69623 10.7946 8.16477 10.4101 8.49441 9.91671C8.82405 9.42336 9 8.84334 9 8.25C9 7.45435 8.68393 6.69129 8.12132 6.12868C7.55871 5.56607 6.79565 5.25 6 5.25ZM18 5.25C17.4067 5.25 16.8266 5.42595 16.3333 5.75559C15.8399 6.08524 15.4554 6.55377 15.2284 7.10195C15.0013 7.65013 14.9419 8.25333 15.0576 8.83527C15.1734 9.41721 15.4591 9.95176 15.8787 10.3713C16.2982 10.7909 16.8328 11.0766 17.4147 11.1924C17.9967 11.3081 18.5999 11.2487 19.1481 11.0216C19.6962 10.7946 20.1648 10.4101 20.4944 9.91671C20.8241 9.42336 21 8.84334 21 8.25C21 7.45435 20.6839 6.69129 20.1213 6.12868C19.5587 5.56607 18.7957 5.25 18 5.25Z" fill="white" fill-opacity="0.1"/>
<path d="M22.9498 14.1C22.871 14.1591 22.7813 14.2021 22.6859 14.2266C22.5905 14.251 22.4912 14.2564 22.3937 14.2425C22.2962 14.2285 22.2024 14.1956 22.1177 14.1454C22.0329 14.0952 21.9589 14.0288 21.8998 13.95C21.4477 13.3424 20.8593 12.8494 20.182 12.5107C19.5046 12.172 18.7571 11.9971 17.9998 12C17.8009 12 17.6101 11.921 17.4695 11.7803C17.3288 11.6397 17.2498 11.4489 17.2498 11.25C17.2498 11.0511 17.3288 10.8603 17.4695 10.7197C17.6101 10.579 17.8009 10.5 17.9998 10.5C18.4206 10.5 18.833 10.3819 19.1901 10.1593C19.5472 9.93662 19.8347 9.61828 20.0199 9.24043C20.2051 8.86257 20.2807 8.44034 20.238 8.0217C20.1953 7.60305 20.036 7.20477 19.7783 6.8721C19.5206 6.53942 19.1748 6.28569 18.7801 6.13972C18.3854 5.99374 17.9577 5.96138 17.5455 6.04631C17.1334 6.13124 16.7533 6.33005 16.4484 6.62016C16.1436 6.91027 15.9262 7.28006 15.821 7.68752C15.7964 7.78293 15.7532 7.87256 15.694 7.95129C15.6347 8.03001 15.5605 8.0963 15.4757 8.14636C15.3908 8.19641 15.2969 8.22926 15.1993 8.24302C15.1017 8.25679 15.0024 8.2512 14.907 8.22658C14.8116 8.20195 14.7219 8.15878 14.6432 8.09952C14.5645 8.04026 14.4982 7.96607 14.4481 7.88119C14.3981 7.79631 14.3652 7.7024 14.3515 7.60483C14.3377 7.50726 14.3433 7.40793 14.3679 7.31251C14.5139 6.7475 14.7898 6.22436 15.1736 5.78472C15.5574 5.34508 16.0385 5.00108 16.5786 4.78009C17.1187 4.5591 17.703 4.46722 18.2848 4.51176C18.8667 4.5563 19.4302 4.73603 19.9304 5.03665C20.4306 5.33727 20.8537 5.75048 21.1661 6.24341C21.4785 6.73633 21.6715 7.29537 21.7299 7.87602C21.7882 8.45668 21.7102 9.04294 21.5021 9.58815C21.2939 10.1334 20.9615 10.6225 20.531 11.0166C21.5509 11.4581 22.4374 12.1588 23.1026 13.0491C23.1617 13.1281 23.2046 13.2179 23.2289 13.3136C23.2532 13.4092 23.2584 13.5086 23.2442 13.6063C23.23 13.7039 23.1967 13.7977 23.1462 13.8825C23.0957 13.9672 23.0289 14.0411 22.9498 14.1ZM17.8985 19.875C17.9509 19.9604 17.9856 20.0554 18.0007 20.1544C18.0157 20.2534 18.0108 20.3545 17.9862 20.4515C17.9616 20.5486 17.9177 20.6398 17.8573 20.7196C17.7969 20.7995 17.7211 20.8665 17.6343 20.9166C17.5476 20.9667 17.4517 20.9989 17.3524 21.0113C17.253 21.0237 17.1521 21.0162 17.0557 20.989C16.9593 20.9618 16.8693 20.9156 16.7911 20.8531C16.7128 20.7906 16.6479 20.713 16.6001 20.625C16.1276 19.8252 15.4548 19.1624 14.648 18.702C13.8412 18.2416 12.9283 17.9994 11.9993 17.9994C11.0704 17.9994 10.1575 18.2416 9.3507 18.702C8.5439 19.1624 7.87106 19.8252 7.39855 20.625C7.35166 20.7146 7.28713 20.7939 7.20883 20.8579C7.13054 20.9219 7.04009 20.9695 6.94295 20.9977C6.8458 21.0259 6.74396 21.0341 6.64355 21.0219C6.54313 21.0097 6.44622 20.9773 6.35865 20.9267C6.27108 20.8761 6.19465 20.8083 6.13396 20.7273C6.07327 20.6464 6.02958 20.5541 6.00552 20.4558C5.98145 20.3576 5.97751 20.2555 5.99393 20.1556C6.01034 20.0558 6.04678 19.9604 6.10105 19.875C6.82817 18.6257 7.93685 17.6425 9.26417 17.07C8.51729 16.4982 7.96838 15.7067 7.69461 14.8067C7.42083 13.9068 7.43595 12.9437 7.73784 12.0528C8.03973 11.1619 8.61321 10.388 9.37767 9.8399C10.1421 9.29179 11.0591 8.99701 11.9998 8.99701C12.9404 8.99701 13.8575 9.29179 14.6219 9.8399C15.3864 10.388 15.9599 11.1619 16.2617 12.0528C16.5636 12.9437 16.5788 13.9068 16.305 14.8067C16.0312 15.7067 15.4823 16.4982 14.7354 17.07C16.0627 17.6425 17.1714 18.6257 17.8985 19.875ZM11.9998 16.5C12.5931 16.5 13.1732 16.3241 13.6665 15.9944C14.1599 15.6648 14.5444 15.1962 14.7714 14.6481C14.9985 14.0999 15.0579 13.4967 14.9422 12.9147C14.8264 12.3328 14.5407 11.7983 14.1211 11.3787C13.7016 10.9591 13.167 10.6734 12.5851 10.5577C12.0031 10.4419 11.3999 10.5013 10.8517 10.7284C10.3036 10.9554 9.83503 11.34 9.50539 11.8333C9.17574 12.3267 8.9998 12.9067 8.9998 13.5C8.9998 14.2957 9.31587 15.0587 9.87848 15.6213C10.4411 16.1839 11.2041 16.5 11.9998 16.5ZM6.7498 11.25C6.7498 11.0511 6.67078 10.8603 6.53013 10.7197C6.38947 10.579 6.19871 10.5 5.9998 10.5C5.57898 10.5 5.1666 10.3819 4.80952 10.1593C4.45243 9.93662 4.16494 9.61828 3.9797 9.24043C3.79446 8.86257 3.7189 8.44034 3.76161 8.0217C3.80431 7.60305 3.96356 7.20477 4.22127 6.8721C4.47898 6.53942 4.82483 6.28569 5.21951 6.13972C5.6142 5.99374 6.04192 5.96138 6.45408 6.04631C6.86624 6.13124 7.24632 6.33005 7.55115 6.62016C7.85598 6.91027 8.07334 7.28006 8.17855 7.68752C8.22827 7.88021 8.35251 8.04526 8.52393 8.14636C8.69535 8.24745 8.89991 8.27631 9.09261 8.22658C9.2853 8.17685 9.45035 8.05261 9.55145 7.88119C9.65254 7.70977 9.6814 7.50521 9.63167 7.31251C9.48565 6.7475 9.20977 6.22436 8.82599 5.78472C8.44221 5.34508 7.96112 5.00108 7.421 4.78009C6.88088 4.5591 6.29664 4.46722 5.71476 4.51176C5.13288 4.5563 4.56942 4.73603 4.06923 5.03665C3.56903 5.33727 3.1459 5.75048 2.8335 6.24341C2.5211 6.73633 2.32806 7.29537 2.26974 7.87602C2.21141 8.45668 2.28941 9.04294 2.49752 9.58815C2.70564 10.1334 3.03813 10.6225 3.46855 11.0166C2.44975 11.4586 1.56422 12.1592 0.899796 13.0491C0.780324 13.2082 0.72896 13.4083 0.757003 13.6053C0.785045 13.8023 0.890197 13.9801 1.04933 14.0995C1.20846 14.219 1.40853 14.2704 1.60553 14.2423C1.80253 14.2143 1.98032 14.1091 2.0998 13.95C2.55185 13.3424 3.14025 12.8494 3.81763 12.5107C4.49502 12.172 5.24246 11.9971 5.9998 12C6.19871 12 6.38947 11.921 6.53013 11.7803C6.67078 11.6397 6.7498 11.4489 6.7498 11.25Z" fill="white"/>
</svg>
