<svg width="329" height="132" viewBox="0 0 329 132" fill="none" xmlns="http://www.w3.org/2000/svg">
<path d="M21.666 119.273H22.7228V125.511C22.7228 126.068 22.6205 126.541 22.416 126.93C22.2114 127.32 21.9231 127.615 21.5509 127.817C21.1787 128.018 20.7398 128.119 20.2341 128.119C19.7569 128.119 19.3321 128.033 18.96 127.859C18.5878 127.683 18.2952 127.433 18.0821 127.109C17.8691 126.786 17.7625 126.401 17.7625 125.955H18.8023C18.8023 126.202 18.8634 126.418 18.9856 126.602C19.1106 126.784 19.281 126.926 19.4969 127.028C19.7128 127.131 19.9586 127.182 20.2341 127.182C20.5381 127.182 20.7966 127.118 21.0097 126.99C21.2228 126.862 21.3847 126.675 21.4955 126.428C21.6091 126.178 21.666 125.872 21.666 125.511V119.273ZM26.6304 128.153C26.2157 128.153 25.8393 128.075 25.5012 127.919C25.1631 127.76 24.8946 127.531 24.6958 127.233C24.4969 126.932 24.3975 126.568 24.3975 126.142C24.3975 125.767 24.4714 125.463 24.6191 125.23C24.7668 124.994 24.9643 124.81 25.2114 124.676C25.4586 124.543 25.7313 124.443 26.0296 124.378C26.3307 124.31 26.6333 124.256 26.9373 124.216C27.335 124.165 27.6574 124.126 27.9046 124.101C28.1546 124.072 28.3364 124.026 28.45 123.96C28.5665 123.895 28.6248 123.781 28.6248 123.619V123.585C28.6248 123.165 28.5097 122.838 28.2796 122.605C28.0523 122.372 27.7071 122.256 27.2441 122.256C26.764 122.256 26.3875 122.361 26.1148 122.571C25.8421 122.781 25.6503 123.006 25.5395 123.244L24.585 122.903C24.7554 122.506 24.9827 122.196 25.2668 121.974C25.5537 121.75 25.8662 121.594 26.2043 121.506C26.5452 121.415 26.8804 121.369 27.21 121.369C27.4202 121.369 27.6617 121.395 27.9344 121.446C28.21 121.494 28.4756 121.595 28.7313 121.749C28.9898 121.902 29.2043 122.134 29.3748 122.443C29.5452 122.753 29.6304 123.168 29.6304 123.688V128H28.6248V127.114H28.5736C28.5054 127.256 28.3918 127.408 28.2327 127.57C28.0736 127.732 27.862 127.869 27.5978 127.983C27.3336 128.097 27.0111 128.153 26.6304 128.153ZM26.7839 127.25C27.1816 127.25 27.5168 127.172 27.7895 127.016C28.0651 126.859 28.2725 126.658 28.4117 126.411C28.5537 126.163 28.6248 125.903 28.6248 125.631V124.71C28.5821 124.761 28.4884 124.808 28.3435 124.851C28.2015 124.891 28.0367 124.926 27.8492 124.957C27.6645 124.986 27.4841 125.011 27.308 125.034C27.1347 125.054 26.9941 125.071 26.8861 125.085C26.6248 125.119 26.3804 125.175 26.1532 125.251C25.9287 125.325 25.7469 125.437 25.6077 125.588C25.4714 125.736 25.4032 125.937 25.4032 126.193C25.4032 126.543 25.5324 126.807 25.791 126.986C26.0523 127.162 26.3833 127.25 26.7839 127.25ZM32.4717 124.062V128H31.466V121.455H32.4376V122.477H32.5228C32.6763 122.145 32.9092 121.878 33.2217 121.676C33.5342 121.472 33.9376 121.369 34.4319 121.369C34.8751 121.369 35.2629 121.46 35.5953 121.642C35.9277 121.821 36.1862 122.094 36.3709 122.46C36.5555 122.824 36.6478 123.284 36.6478 123.841V128H35.6422V123.909C35.6422 123.395 35.5086 122.994 35.2416 122.707C34.9745 122.418 34.6081 122.273 34.1422 122.273C33.8211 122.273 33.5342 122.342 33.2814 122.482C33.0314 122.621 32.8339 122.824 32.689 123.091C32.5442 123.358 32.4717 123.682 32.4717 124.062Z" fill="white"/>
<path d="M72.807 128V119.273H78.0399V120.21H73.8638V123.159H77.6479V124.097H73.8638V128H72.807ZM81.9774 128.136C81.3468 128.136 80.8027 127.997 80.3453 127.719C79.8908 127.438 79.5399 127.045 79.2928 126.543C79.0485 126.037 78.9263 125.449 78.9263 124.778C78.9263 124.108 79.0485 123.517 79.2928 123.006C79.5399 122.491 79.8837 122.091 80.324 121.804C80.7672 121.514 81.2843 121.369 81.8752 121.369C82.2161 121.369 82.5527 121.426 82.8851 121.54C83.2175 121.653 83.52 121.838 83.7928 122.094C84.0655 122.347 84.2828 122.682 84.4448 123.099C84.6067 123.517 84.6877 124.031 84.6877 124.642V125.068H79.6422V124.199H83.6649C83.6649 123.83 83.5911 123.5 83.4433 123.21C83.2985 122.92 83.0911 122.692 82.8212 122.524C82.5541 122.357 82.2388 122.273 81.8752 122.273C81.4746 122.273 81.128 122.372 80.8354 122.571C80.5456 122.767 80.3226 123.023 80.1664 123.338C80.0101 123.653 79.932 123.991 79.932 124.352V124.932C79.932 125.426 80.0172 125.845 80.1877 126.189C80.361 126.53 80.601 126.79 80.9078 126.969C81.2147 127.145 81.5712 127.233 81.9774 127.233C82.2416 127.233 82.4803 127.196 82.6933 127.122C82.9093 127.045 83.0953 126.932 83.2516 126.781C83.4078 126.628 83.5286 126.437 83.6138 126.21L84.5854 126.483C84.4831 126.812 84.3112 127.102 84.0698 127.352C83.8283 127.599 83.53 127.793 83.1749 127.932C82.8198 128.068 82.4206 128.136 81.9774 128.136ZM86.3539 128V119.273H87.3595V122.494H87.4448C87.5186 122.381 87.6209 122.236 87.7516 122.06C87.8851 121.881 88.0754 121.722 88.3226 121.582C88.5726 121.44 88.9107 121.369 89.3368 121.369C89.8879 121.369 90.3737 121.507 90.7942 121.783C91.2147 122.058 91.5428 122.449 91.7786 122.955C92.0144 123.46 92.1323 124.057 92.1323 124.744C92.1323 125.438 92.0144 126.038 91.7786 126.547C91.5428 127.053 91.2161 127.445 90.7985 127.723C90.3808 127.999 89.8993 128.136 89.3539 128.136C88.9334 128.136 88.5968 128.067 88.3439 127.928C88.0911 127.786 87.8965 127.625 87.7601 127.446C87.6237 127.264 87.5186 127.114 87.4448 126.994H87.3254V128H86.3539ZM87.3425 124.727C87.3425 125.222 87.4149 125.658 87.5598 126.036C87.7047 126.411 87.9164 126.705 88.1948 126.918C88.4732 127.128 88.8141 127.233 89.2175 127.233C89.6379 127.233 89.9888 127.122 90.27 126.901C90.5541 126.676 90.7672 126.375 90.9093 125.997C91.0541 125.616 91.1266 125.193 91.1266 124.727C91.1266 124.267 91.0556 123.852 90.9135 123.483C90.7743 123.111 90.5627 122.817 90.2786 122.601C89.9973 122.382 89.6436 122.273 89.2175 122.273C88.8084 122.273 88.4647 122.376 88.1862 122.584C87.9078 122.788 87.6976 123.075 87.5556 123.445C87.4135 123.811 87.3425 124.239 87.3425 124.727Z" fill="white"/>
<path d="M127.189 119.273H128.45L131.416 126.517H131.518L134.484 119.273H135.746V128H134.757V121.369H134.672L131.944 128H130.99L128.263 121.369H128.177V128H127.189V119.273ZM139.654 128.153C139.24 128.153 138.863 128.075 138.525 127.919C138.187 127.76 137.919 127.531 137.72 127.233C137.521 126.932 137.421 126.568 137.421 126.142C137.421 125.767 137.495 125.463 137.643 125.23C137.791 124.994 137.988 124.81 138.235 124.676C138.482 124.543 138.755 124.443 139.054 124.378C139.355 124.31 139.657 124.256 139.961 124.216C140.359 124.165 140.681 124.126 140.929 124.101C141.179 124.072 141.36 124.026 141.474 123.96C141.59 123.895 141.649 123.781 141.649 123.619V123.585C141.649 123.165 141.534 122.838 141.304 122.605C141.076 122.372 140.731 122.256 140.268 122.256C139.788 122.256 139.411 122.361 139.139 122.571C138.866 122.781 138.674 123.006 138.563 123.244L137.609 122.903C137.779 122.506 138.007 122.196 138.291 121.974C138.578 121.75 138.89 121.594 139.228 121.506C139.569 121.415 139.904 121.369 140.234 121.369C140.444 121.369 140.686 121.395 140.958 121.446C141.234 121.494 141.5 121.595 141.755 121.749C142.014 121.902 142.228 122.134 142.399 122.443C142.569 122.753 142.654 123.168 142.654 123.688V128H141.649V127.114H141.598C141.529 127.256 141.416 127.408 141.257 127.57C141.098 127.732 140.886 127.869 140.622 127.983C140.357 128.097 140.035 128.153 139.654 128.153ZM139.808 127.25C140.206 127.25 140.541 127.172 140.813 127.016C141.089 126.859 141.296 126.658 141.436 126.411C141.578 126.163 141.649 125.903 141.649 125.631V124.71C141.606 124.761 141.512 124.808 141.367 124.851C141.225 124.891 141.061 124.926 140.873 124.957C140.688 124.986 140.508 125.011 140.332 125.034C140.159 125.054 140.018 125.071 139.91 125.085C139.649 125.119 139.404 125.175 139.177 125.251C138.953 125.325 138.771 125.437 138.632 125.588C138.495 125.736 138.427 125.937 138.427 126.193C138.427 126.543 138.556 126.807 138.815 126.986C139.076 127.162 139.407 127.25 139.808 127.25ZM144.49 128V121.455H145.462V122.443H145.53C145.649 122.119 145.865 121.857 146.177 121.655C146.49 121.453 146.842 121.352 147.234 121.352C147.308 121.352 147.4 121.354 147.511 121.357C147.622 121.359 147.706 121.364 147.763 121.369V122.392C147.729 122.384 147.65 122.371 147.528 122.354C147.409 122.334 147.283 122.324 147.149 122.324C146.831 122.324 146.547 122.391 146.297 122.524C146.05 122.655 145.854 122.837 145.709 123.07C145.567 123.3 145.496 123.562 145.496 123.858V128H144.49Z" fill="white"/>
<path d="M183.388 128H182.28L185.485 119.273H186.576L189.78 128H188.672L186.064 120.653H185.996L183.388 128ZM183.797 124.591H188.263V125.528H183.797V124.591ZM191.003 130.455V121.455H191.975V122.494H192.094C192.168 122.381 192.27 122.236 192.401 122.06C192.534 121.881 192.725 121.722 192.972 121.582C193.222 121.44 193.56 121.369 193.986 121.369C194.537 121.369 195.023 121.507 195.443 121.783C195.864 122.058 196.192 122.449 196.428 122.955C196.664 123.46 196.782 124.057 196.782 124.744C196.782 125.438 196.664 126.038 196.428 126.547C196.192 127.053 195.865 127.445 195.448 127.723C195.03 127.999 194.549 128.136 194.003 128.136C193.583 128.136 193.246 128.067 192.993 127.928C192.74 127.786 192.546 127.625 192.409 127.446C192.273 127.264 192.168 127.114 192.094 126.994H192.009V130.455H191.003ZM191.992 124.727C191.992 125.222 192.064 125.658 192.209 126.036C192.354 126.411 192.566 126.705 192.844 126.918C193.122 127.128 193.463 127.233 193.867 127.233C194.287 127.233 194.638 127.122 194.919 126.901C195.203 126.676 195.416 126.375 195.559 125.997C195.703 125.616 195.776 125.193 195.776 124.727C195.776 124.267 195.705 123.852 195.563 123.483C195.424 123.111 195.212 122.817 194.928 122.601C194.647 122.382 194.293 122.273 193.867 122.273C193.458 122.273 193.114 122.376 192.836 122.584C192.557 122.788 192.347 123.075 192.205 123.445C192.063 123.811 191.992 124.239 191.992 124.727ZM198.316 128V121.455H199.287V122.443H199.355C199.475 122.119 199.691 121.857 200.003 121.655C200.316 121.453 200.668 121.352 201.06 121.352C201.134 121.352 201.226 121.354 201.337 121.357C201.448 121.359 201.532 121.364 201.588 121.369V122.392C201.554 122.384 201.476 122.371 201.354 122.354C201.235 122.334 201.108 122.324 200.975 122.324C200.657 122.324 200.372 122.391 200.122 122.524C199.875 122.655 199.679 122.837 199.534 123.07C199.392 123.3 199.321 123.562 199.321 123.858V128H198.316Z" fill="white"/>
<path d="M235.866 119.273H237.127L240.093 126.517H240.195L243.161 119.273H244.422V128H243.434V121.369H243.349L240.621 128H239.667L236.939 121.369H236.854V128H235.866V119.273ZM248.331 128.153C247.916 128.153 247.54 128.075 247.202 127.919C246.864 127.76 246.595 127.531 246.396 127.233C246.198 126.932 246.098 126.568 246.098 126.142C246.098 125.767 246.172 125.463 246.32 125.23C246.467 124.994 246.665 124.81 246.912 124.676C247.159 124.543 247.432 124.443 247.73 124.378C248.031 124.31 248.334 124.256 248.638 124.216C249.036 124.165 249.358 124.126 249.605 124.101C249.855 124.072 250.037 124.026 250.151 123.96C250.267 123.895 250.325 123.781 250.325 123.619V123.585C250.325 123.165 250.21 122.838 249.98 122.605C249.753 122.372 249.408 122.256 248.945 122.256C248.465 122.256 248.088 122.361 247.816 122.571C247.543 122.781 247.351 123.006 247.24 123.244L246.286 122.903C246.456 122.506 246.683 122.196 246.967 121.974C247.254 121.75 247.567 121.594 247.905 121.506C248.246 121.415 248.581 121.369 248.911 121.369C249.121 121.369 249.362 121.395 249.635 121.446C249.911 121.494 250.176 121.595 250.432 121.749C250.691 121.902 250.905 122.134 251.075 122.443C251.246 122.753 251.331 123.168 251.331 123.688V128H250.325V127.114H250.274C250.206 127.256 250.092 127.408 249.933 127.57C249.774 127.732 249.563 127.869 249.298 127.983C249.034 128.097 248.712 128.153 248.331 128.153ZM248.485 127.25C248.882 127.25 249.217 127.172 249.49 127.016C249.766 126.859 249.973 126.658 250.112 126.411C250.254 126.163 250.325 125.903 250.325 125.631V124.71C250.283 124.761 250.189 124.808 250.044 124.851C249.902 124.891 249.737 124.926 249.55 124.957C249.365 124.986 249.185 125.011 249.009 125.034C248.835 125.054 248.695 125.071 248.587 125.085C248.325 125.119 248.081 125.175 247.854 125.251C247.629 125.325 247.448 125.437 247.308 125.588C247.172 125.736 247.104 125.937 247.104 126.193C247.104 126.543 247.233 126.807 247.492 126.986C247.753 127.162 248.084 127.25 248.485 127.25ZM253.58 130.455C253.41 130.455 253.258 130.44 253.124 130.412C252.991 130.386 252.898 130.361 252.847 130.335L253.103 129.449C253.347 129.511 253.563 129.534 253.751 129.517C253.938 129.5 254.104 129.416 254.249 129.266C254.397 129.118 254.532 128.878 254.654 128.545L254.841 128.034L252.421 121.455H253.512L255.319 126.67H255.387L257.194 121.455H258.285L255.506 128.955C255.381 129.293 255.226 129.572 255.042 129.794C254.857 130.018 254.643 130.185 254.398 130.293C254.157 130.401 253.884 130.455 253.58 130.455Z" fill="white"/>
<path d="M295.727 119.273H296.784V125.511C296.784 126.068 296.682 126.541 296.477 126.93C296.272 127.32 295.984 127.615 295.612 127.817C295.24 128.018 294.801 128.119 294.295 128.119C293.818 128.119 293.393 128.033 293.021 127.859C292.649 127.683 292.356 127.433 292.143 127.109C291.93 126.786 291.824 126.401 291.824 125.955H292.863C292.863 126.202 292.924 126.418 293.047 126.602C293.172 126.784 293.342 126.926 293.558 127.028C293.774 127.131 294.02 127.182 294.295 127.182C294.599 127.182 294.858 127.118 295.071 126.99C295.284 126.862 295.446 126.675 295.557 126.428C295.67 126.178 295.727 125.872 295.727 125.511V119.273ZM302.89 125.324V121.455H303.896V128H302.89V126.892H302.822C302.669 127.224 302.43 127.507 302.106 127.74C301.782 127.97 301.373 128.085 300.879 128.085C300.47 128.085 300.106 127.996 299.788 127.817C299.47 127.635 299.22 127.362 299.038 126.999C298.856 126.632 298.765 126.17 298.765 125.614V121.455H299.771V125.545C299.771 126.023 299.905 126.403 300.172 126.688C300.441 126.972 300.785 127.114 301.203 127.114C301.453 127.114 301.707 127.05 301.966 126.922C302.227 126.794 302.446 126.598 302.622 126.334C302.801 126.07 302.89 125.733 302.89 125.324ZM306.744 124.062V128H305.738V121.455H306.71V122.477H306.795C306.948 122.145 307.181 121.878 307.494 121.676C307.806 121.472 308.21 121.369 308.704 121.369C309.147 121.369 309.535 121.46 309.867 121.642C310.2 121.821 310.458 122.094 310.643 122.46C310.827 122.824 310.92 123.284 310.92 123.841V128H309.914V123.909C309.914 123.395 309.781 122.994 309.514 122.707C309.247 122.418 308.88 122.273 308.414 122.273C308.093 122.273 307.806 122.342 307.553 122.482C307.303 122.621 307.106 122.824 306.961 123.091C306.816 123.358 306.744 123.682 306.744 124.062Z" fill="white"/>
<g clip-path="url(#clip0_30111_2419)">
<path d="M13 83.4103C13 83.1341 13.2239 82.9103 13.5 82.9103V82.9103C13.7761 82.9103 14 83.1341 14 83.4103V103.5C14 103.776 13.7761 104 13.5 104V104C13.2239 104 13 103.776 13 103.5V83.4103Z" fill="#FF453A"/>
<path d="M13 68.9487C13 68.6726 13.2239 68.4487 13.5 68.4487V68.4487C13.7761 68.4487 14 68.6726 14 68.9487V81.2051C14 81.4813 13.7761 81.7051 13.5 81.7051V81.7051C13.2239 81.7051 13 81.4813 13 81.2051V68.9487Z" fill="white" fill-opacity="0.4"/>
<path d="M13 58.7052C13 58.4291 13.2239 58.2052 13.5 58.2052V58.2052C13.7761 58.2052 14 58.4291 14 58.7052V66.7436C14 67.0198 13.7761 67.2436 13.5 67.2436V67.2436C13.2239 67.2436 13 67.0198 13 66.7436V58.7052Z" fill="white" style="mix-blend-mode:multiply"/>
<path d="M13 58.7052C13 58.4291 13.2239 58.2052 13.5 58.2052V58.2052C13.7761 58.2052 14 58.4291 14 58.7052V66.7436C14 67.0198 13.7761 67.2436 13.5 67.2436V67.2436C13.2239 67.2436 13 67.0198 13 66.7436V58.7052Z" fill="white" fill-opacity="0.2" style="mix-blend-mode:overlay"/>
<path d="M13 58.7052C13 58.4291 13.2239 58.2052 13.5 58.2052V58.2052C13.7761 58.2052 14 58.4291 14 58.7052V66.7436C14 67.0198 13.7761 67.2436 13.5 67.2436V67.2436C13.2239 67.2436 13 67.0198 13 66.7436V58.7052Z" fill="url(#paint0_linear_30111_2419)" fill-opacity="0.6"/>
</g>
<g clip-path="url(#clip1_30111_2419)">
<path d="M40.4165 50.2693C40.4165 49.9931 40.6404 49.7693 40.9165 49.7693V49.7693C41.1926 49.7693 41.4165 49.9931 41.4165 50.2693V103.5C41.4165 103.776 41.1926 104 40.9165 104V104C40.6404 104 40.4165 103.776 40.4165 103.5V50.2693Z" fill="#FF453A"/>
<path d="M40.4165 34.6027C40.4165 34.3265 40.6404 34.1027 40.9165 34.1027V34.1027C41.1926 34.1027 41.4165 34.3265 41.4165 34.6027V48.0642C41.4165 48.3403 41.1926 48.5642 40.9165 48.5642V48.5642C40.6404 48.5642 40.4165 48.3403 40.4165 48.0642V34.6027Z" fill="white" fill-opacity="0.4"/>
<path d="M40.4165 20.1412C40.4165 19.8651 40.6404 19.6412 40.9165 19.6412V19.6412C41.1926 19.6412 41.4165 19.8651 41.4165 20.1412V32.3976C41.4165 32.6738 41.1926 32.8976 40.9165 32.8976V32.8976C40.6404 32.8976 40.4165 32.6738 40.4165 32.3976V20.1412Z" fill="white" style="mix-blend-mode:multiply"/>
<path d="M40.4165 20.1412C40.4165 19.8651 40.6404 19.6412 40.9165 19.6412V19.6412C41.1926 19.6412 41.4165 19.8651 41.4165 20.1412V32.3976C41.4165 32.6738 41.1926 32.8976 40.9165 32.8976V32.8976C40.6404 32.8976 40.4165 32.6738 40.4165 32.3976V20.1412Z" fill="white" fill-opacity="0.2" style="mix-blend-mode:overlay"/>
<path d="M40.4165 20.1412C40.4165 19.8651 40.6404 19.6412 40.9165 19.6412V19.6412C41.1926 19.6412 41.4165 19.8651 41.4165 20.1412V32.3976C41.4165 32.6738 41.1926 32.8976 40.9165 32.8976V32.8976C40.6404 32.8976 40.4165 32.6738 40.4165 32.3976V20.1412Z" fill="url(#paint1_linear_30111_2419)" fill-opacity="0.6"/>
</g>
<g clip-path="url(#clip2_30111_2419)">
<path d="M67.8335 74.3718C67.8335 74.0957 68.0574 73.8718 68.3335 73.8718V73.8718C68.6096 73.8718 68.8335 74.0957 68.8335 74.3718V103.5C68.8335 103.776 68.6096 104 68.3335 104V104C68.0574 104 67.8335 103.776 67.8335 103.5V74.3718Z" fill="#FF453A"/>
<path d="M67.8335 55.0898C67.8335 54.8137 68.0574 54.5898 68.3335 54.5898V54.5898C68.6096 54.5898 68.8335 54.8137 68.8335 55.0898V72.1667C68.8335 72.4429 68.6096 72.6667 68.3335 72.6667V72.6667C68.0574 72.6667 67.8335 72.4429 67.8335 72.1667V55.0898Z" fill="white" fill-opacity="0.4"/>
<path d="M67.8335 44.2438C67.8335 43.9676 68.0574 43.7438 68.3335 43.7438V43.7438C68.6096 43.7438 68.8335 43.9676 68.8335 44.2438V52.8848C68.8335 53.1609 68.6096 53.3848 68.3335 53.3848V53.3848C68.0574 53.3848 67.8335 53.1609 67.8335 52.8848V44.2438Z" fill="white" style="mix-blend-mode:multiply"/>
<path d="M67.8335 44.2438C67.8335 43.9676 68.0574 43.7438 68.3335 43.7438V43.7438C68.6096 43.7438 68.8335 43.9676 68.8335 44.2438V52.8848C68.8335 53.1609 68.6096 53.3848 68.3335 53.3848V53.3848C68.0574 53.3848 67.8335 53.1609 67.8335 52.8848V44.2438Z" fill="white" fill-opacity="0.2" style="mix-blend-mode:overlay"/>
<path d="M67.8335 44.2438C67.8335 43.9676 68.0574 43.7438 68.3335 43.7438V43.7438C68.6096 43.7438 68.8335 43.9676 68.8335 44.2438V52.8848C68.8335 53.1609 68.6096 53.3848 68.3335 53.3848V53.3848C68.0574 53.3848 67.8335 53.1609 67.8335 52.8848V44.2438Z" fill="url(#paint2_linear_30111_2419)" fill-opacity="0.6"/>
</g>
<g clip-path="url(#clip3_30111_2419)">
<path d="M95.25 40.6283C95.25 40.3522 95.4739 40.1283 95.75 40.1283V40.1283C96.0261 40.1283 96.25 40.3522 96.25 40.6283V103.5C96.25 103.776 96.0261 104 95.75 104V104C95.4739 104 95.25 103.776 95.25 103.5V40.6283Z" fill="#FF453A"/>
<path d="M95.25 21.3463C95.25 21.0702 95.4739 20.8463 95.75 20.8463V20.8463C96.0261 20.8463 96.25 21.0702 96.25 21.3463V38.4232C96.25 38.6993 96.0261 38.9232 95.75 38.9232V38.9232C95.4739 38.9232 95.25 38.6993 95.25 38.4232V21.3463Z" fill="white" fill-opacity="0.4"/>
<path d="M95.25 8.08997C95.25 7.81382 95.4739 7.58997 95.75 7.58997V7.58997C96.0261 7.58997 96.25 7.81382 96.25 8.08997V19.1412C96.25 19.4174 96.0261 19.6412 95.75 19.6412V19.6412C95.4739 19.6412 95.25 19.4174 95.25 19.1412V8.08997Z" fill="white" style="mix-blend-mode:multiply"/>
<path d="M95.25 8.08997C95.25 7.81382 95.4739 7.58997 95.75 7.58997V7.58997C96.0261 7.58997 96.25 7.81382 96.25 8.08997V19.1412C96.25 19.4174 96.0261 19.6412 95.75 19.6412V19.6412C95.4739 19.6412 95.25 19.4174 95.25 19.1412V8.08997Z" fill="white" fill-opacity="0.2" style="mix-blend-mode:overlay"/>
<path d="M95.25 8.08997C95.25 7.81382 95.4739 7.58997 95.75 7.58997V7.58997C96.0261 7.58997 96.25 7.81382 96.25 8.08997V19.1412C96.25 19.4174 96.0261 19.6412 95.75 19.6412V19.6412C95.4739 19.6412 95.25 19.4174 95.25 19.1412V8.08997Z" fill="url(#paint3_linear_30111_2419)" fill-opacity="0.6"/>
</g>
<g clip-path="url(#clip4_30111_2419)">
<path d="M122.667 89.4359C122.667 89.1598 122.89 88.9359 123.167 88.9359V88.9359C123.443 88.9359 123.667 89.1598 123.667 89.4359V103.5C123.667 103.776 123.443 104 123.167 104V104C122.89 104 122.667 103.776 122.667 103.5V89.4359Z" fill="#FF453A"/>
<path d="M122.667 76.7821C122.667 76.506 122.89 76.2821 123.167 76.2821V76.2821C123.443 76.2821 123.667 76.506 123.667 76.7821V87.2308C123.667 87.5069 123.443 87.7308 123.167 87.7308V87.7308C122.89 87.7308 122.667 87.5069 122.667 87.2308V76.7821Z" fill="white" fill-opacity="0.4"/>
<path d="M122.667 68.3462C122.667 68.07 122.89 67.8462 123.167 67.8462V67.8462C123.443 67.8462 123.667 68.07 123.667 68.3462V74.5769C123.667 74.8531 123.443 75.0769 123.167 75.0769V75.0769C122.89 75.0769 122.667 74.8531 122.667 74.5769V68.3462Z" fill="white" style="mix-blend-mode:multiply"/>
<path d="M122.667 68.3462C122.667 68.07 122.89 67.8462 123.167 67.8462V67.8462C123.443 67.8462 123.667 68.07 123.667 68.3462V74.5769C123.667 74.8531 123.443 75.0769 123.167 75.0769V75.0769C122.89 75.0769 122.667 74.8531 122.667 74.5769V68.3462Z" fill="white" fill-opacity="0.2" style="mix-blend-mode:overlay"/>
<path d="M122.667 68.3462C122.667 68.07 122.89 67.8462 123.167 67.8462V67.8462C123.443 67.8462 123.667 68.07 123.667 68.3462V74.5769C123.667 74.8531 123.443 75.0769 123.167 75.0769V75.0769C122.89 75.0769 122.667 74.8531 122.667 74.5769V68.3462Z" fill="url(#paint4_linear_30111_2419)" fill-opacity="0.6"/>
</g>
<g clip-path="url(#clip5_30111_2419)">
<path d="M150.083 62.3206C150.083 62.0444 150.307 61.8206 150.583 61.8206V61.8206C150.86 61.8206 151.083 62.0444 151.083 62.3206V103.5C151.083 103.776 150.86 104 150.583 104V104C150.307 104 150.083 103.776 150.083 103.5V62.3206Z" fill="#FF453A"/>
<path d="M150.083 46.6539C150.083 46.3778 150.307 46.1539 150.583 46.1539V46.1539C150.86 46.1539 151.083 46.3778 151.083 46.6539V60.1154C151.083 60.3916 150.86 60.6154 150.583 60.6154V60.6154C150.307 60.6154 150.083 60.3916 150.083 60.1154V46.6539Z" fill="white" fill-opacity="0.4"/>
<path d="M150.083 32.1925C150.083 31.9164 150.307 31.6925 150.583 31.6925V31.6925C150.86 31.6925 151.083 31.9164 151.083 32.1925V44.4489C151.083 44.725 150.86 44.9489 150.583 44.9489V44.9489C150.307 44.9489 150.083 44.725 150.083 44.4489V32.1925Z" fill="white" style="mix-blend-mode:multiply"/>
<path d="M150.083 32.1925C150.083 31.9164 150.307 31.6925 150.583 31.6925V31.6925C150.86 31.6925 151.083 31.9164 151.083 32.1925V44.4489C151.083 44.725 150.86 44.9489 150.583 44.9489V44.9489C150.307 44.9489 150.083 44.725 150.083 44.4489V32.1925Z" fill="white" fill-opacity="0.2" style="mix-blend-mode:overlay"/>
<path d="M150.083 32.1925C150.083 31.9164 150.307 31.6925 150.583 31.6925V31.6925C150.86 31.6925 151.083 31.9164 151.083 32.1925V44.4489C151.083 44.725 150.86 44.9489 150.583 44.9489V44.9489C150.307 44.9489 150.083 44.725 150.083 44.4489V32.1925Z" fill="url(#paint5_linear_30111_2419)" fill-opacity="0.6"/>
</g>
<g clip-path="url(#clip6_30111_2419)">
<path d="M177.5 83.4103C177.5 83.1341 177.724 82.9103 178 82.9103V82.9103C178.276 82.9103 178.5 83.1341 178.5 83.4103V103.5C178.5 103.776 178.276 104 178 104V104C177.724 104 177.5 103.776 177.5 103.5V83.4103Z" fill="#FF453A"/>
<path d="M177.5 68.9487C177.5 68.6726 177.724 68.4487 178 68.4487V68.4487C178.276 68.4487 178.5 68.6726 178.5 68.9487V81.2051C178.5 81.4813 178.276 81.7051 178 81.7051V81.7051C177.724 81.7051 177.5 81.4813 177.5 81.2051V68.9487Z" fill="white" fill-opacity="0.4"/>
<path d="M177.5 58.7052C177.5 58.4291 177.724 58.2052 178 58.2052V58.2052C178.276 58.2052 178.5 58.4291 178.5 58.7052V66.7436C178.5 67.0198 178.276 67.2436 178 67.2436V67.2436C177.724 67.2436 177.5 67.0198 177.5 66.7436V58.7052Z" fill="white" style="mix-blend-mode:multiply"/>
<path d="M177.5 58.7052C177.5 58.4291 177.724 58.2052 178 58.2052V58.2052C178.276 58.2052 178.5 58.4291 178.5 58.7052V66.7436C178.5 67.0198 178.276 67.2436 178 67.2436V67.2436C177.724 67.2436 177.5 67.0198 177.5 66.7436V58.7052Z" fill="white" fill-opacity="0.2" style="mix-blend-mode:overlay"/>
<path d="M177.5 58.7052C177.5 58.4291 177.724 58.2052 178 58.2052V58.2052C178.276 58.2052 178.5 58.4291 178.5 58.7052V66.7436C178.5 67.0198 178.276 67.2436 178 67.2436V67.2436C177.724 67.2436 177.5 67.0198 177.5 66.7436V58.7052Z" fill="url(#paint6_linear_30111_2419)" fill-opacity="0.6"/>
</g>
<g clip-path="url(#clip7_30111_2419)">
<path d="M204.917 50.2693C204.917 49.9931 205.14 49.7693 205.417 49.7693V49.7693C205.693 49.7693 205.917 49.9931 205.917 50.2693V103.5C205.917 103.776 205.693 104 205.417 104V104C205.14 104 204.917 103.776 204.917 103.5V50.2693Z" fill="#FF453A"/>
<path d="M204.917 34.6027C204.917 34.3265 205.14 34.1027 205.417 34.1027V34.1027C205.693 34.1027 205.917 34.3265 205.917 34.6027V48.0642C205.917 48.3403 205.693 48.5642 205.417 48.5642V48.5642C205.14 48.5642 204.917 48.3403 204.917 48.0642V34.6027Z" fill="white" fill-opacity="0.4"/>
<path d="M204.917 20.1412C204.917 19.8651 205.14 19.6412 205.417 19.6412V19.6412C205.693 19.6412 205.917 19.8651 205.917 20.1412V32.3976C205.917 32.6738 205.693 32.8976 205.417 32.8976V32.8976C205.14 32.8976 204.917 32.6738 204.917 32.3976V20.1412Z" fill="white" style="mix-blend-mode:multiply"/>
<path d="M204.917 20.1412C204.917 19.8651 205.14 19.6412 205.417 19.6412V19.6412C205.693 19.6412 205.917 19.8651 205.917 20.1412V32.3976C205.917 32.6738 205.693 32.8976 205.417 32.8976V32.8976C205.14 32.8976 204.917 32.6738 204.917 32.3976V20.1412Z" fill="white" fill-opacity="0.2" style="mix-blend-mode:overlay"/>
<path d="M204.917 20.1412C204.917 19.8651 205.14 19.6412 205.417 19.6412V19.6412C205.693 19.6412 205.917 19.8651 205.917 20.1412V32.3976C205.917 32.6738 205.693 32.8976 205.417 32.8976V32.8976C205.14 32.8976 204.917 32.6738 204.917 32.3976V20.1412Z" fill="url(#paint7_linear_30111_2419)" fill-opacity="0.6"/>
</g>
<g clip-path="url(#clip8_30111_2419)">
<path d="M232.333 74.3718C232.333 74.0957 232.557 73.8718 232.833 73.8718V73.8718C233.11 73.8718 233.333 74.0957 233.333 74.3718V103.5C233.333 103.776 233.11 104 232.833 104V104C232.557 104 232.333 103.776 232.333 103.5V74.3718Z" fill="#FF453A"/>
<path d="M232.333 55.0898C232.333 54.8137 232.557 54.5898 232.833 54.5898V54.5898C233.11 54.5898 233.333 54.8137 233.333 55.0898V72.1667C233.333 72.4429 233.11 72.6667 232.833 72.6667V72.6667C232.557 72.6667 232.333 72.4429 232.333 72.1667V55.0898Z" fill="white" fill-opacity="0.4"/>
<path d="M232.333 44.2438C232.333 43.9676 232.557 43.7438 232.833 43.7438V43.7438C233.11 43.7438 233.333 43.9676 233.333 44.2438V52.8848C233.333 53.1609 233.11 53.3848 232.833 53.3848V53.3848C232.557 53.3848 232.333 53.1609 232.333 52.8848V44.2438Z" fill="white" style="mix-blend-mode:multiply"/>
<path d="M232.333 44.2438C232.333 43.9676 232.557 43.7438 232.833 43.7438V43.7438C233.11 43.7438 233.333 43.9676 233.333 44.2438V52.8848C233.333 53.1609 233.11 53.3848 232.833 53.3848V53.3848C232.557 53.3848 232.333 53.1609 232.333 52.8848V44.2438Z" fill="white" fill-opacity="0.2" style="mix-blend-mode:overlay"/>
<path d="M232.333 44.2438C232.333 43.9676 232.557 43.7438 232.833 43.7438V43.7438C233.11 43.7438 233.333 43.9676 233.333 44.2438V52.8848C233.333 53.1609 233.11 53.3848 232.833 53.3848V53.3848C232.557 53.3848 232.333 53.1609 232.333 52.8848V44.2438Z" fill="url(#paint8_linear_30111_2419)" fill-opacity="0.6"/>
</g>
<g clip-path="url(#clip9_30111_2419)">
<path d="M259.75 40.6283C259.75 40.3522 259.974 40.1283 260.25 40.1283V40.1283C260.526 40.1283 260.75 40.3522 260.75 40.6283V103.5C260.75 103.776 260.526 104 260.25 104V104C259.974 104 259.75 103.776 259.75 103.5V40.6283Z" fill="#FF453A"/>
<path d="M259.75 21.3463C259.75 21.0702 259.974 20.8463 260.25 20.8463V20.8463C260.526 20.8463 260.75 21.0702 260.75 21.3463V38.4232C260.75 38.6993 260.526 38.9232 260.25 38.9232V38.9232C259.974 38.9232 259.75 38.6993 259.75 38.4232V21.3463Z" fill="white" fill-opacity="0.4"/>
<path d="M259.75 8.08997C259.75 7.81382 259.974 7.58997 260.25 7.58997V7.58997C260.526 7.58997 260.75 7.81382 260.75 8.08997V19.1412C260.75 19.4174 260.526 19.6412 260.25 19.6412V19.6412C259.974 19.6412 259.75 19.4174 259.75 19.1412V8.08997Z" fill="white" style="mix-blend-mode:multiply"/>
<path d="M259.75 8.08997C259.75 7.81382 259.974 7.58997 260.25 7.58997V7.58997C260.526 7.58997 260.75 7.81382 260.75 8.08997V19.1412C260.75 19.4174 260.526 19.6412 260.25 19.6412V19.6412C259.974 19.6412 259.75 19.4174 259.75 19.1412V8.08997Z" fill="white" fill-opacity="0.2" style="mix-blend-mode:overlay"/>
<path d="M259.75 8.08997C259.75 7.81382 259.974 7.58997 260.25 7.58997V7.58997C260.526 7.58997 260.75 7.81382 260.75 8.08997V19.1412C260.75 19.4174 260.526 19.6412 260.25 19.6412V19.6412C259.974 19.6412 259.75 19.4174 259.75 19.1412V8.08997Z" fill="url(#paint9_linear_30111_2419)" fill-opacity="0.6"/>
</g>
<g clip-path="url(#clip10_30111_2419)">
<path d="M287.167 89.4359C287.167 89.1598 287.39 88.9359 287.667 88.9359V88.9359C287.943 88.9359 288.167 89.1598 288.167 89.4359V103.5C288.167 103.776 287.943 104 287.667 104V104C287.39 104 287.167 103.776 287.167 103.5V89.4359Z" fill="#FF453A"/>
<path d="M287.167 76.7821C287.167 76.506 287.39 76.2821 287.667 76.2821V76.2821C287.943 76.2821 288.167 76.506 288.167 76.7821V87.2308C288.167 87.5069 287.943 87.7308 287.667 87.7308V87.7308C287.39 87.7308 287.167 87.5069 287.167 87.2308V76.7821Z" fill="white" fill-opacity="0.4"/>
<path d="M287.167 68.3462C287.167 68.07 287.39 67.8462 287.667 67.8462V67.8462C287.943 67.8462 288.167 68.07 288.167 68.3462V74.5769C288.167 74.8531 287.943 75.0769 287.667 75.0769V75.0769C287.39 75.0769 287.167 74.8531 287.167 74.5769V68.3462Z" fill="white" style="mix-blend-mode:multiply"/>
<path d="M287.167 68.3462C287.167 68.07 287.39 67.8462 287.667 67.8462V67.8462C287.943 67.8462 288.167 68.07 288.167 68.3462V74.5769C288.167 74.8531 287.943 75.0769 287.667 75.0769V75.0769C287.39 75.0769 287.167 74.8531 287.167 74.5769V68.3462Z" fill="white" fill-opacity="0.2" style="mix-blend-mode:overlay"/>
<path d="M287.167 68.3462C287.167 68.07 287.39 67.8462 287.667 67.8462V67.8462C287.943 67.8462 288.167 68.07 288.167 68.3462V74.5769C288.167 74.8531 287.943 75.0769 287.667 75.0769V75.0769C287.39 75.0769 287.167 74.8531 287.167 74.5769V68.3462Z" fill="url(#paint10_linear_30111_2419)" fill-opacity="0.6"/>
</g>
<g clip-path="url(#clip11_30111_2419)">
<path d="M314.583 62.3206C314.583 62.0444 314.807 61.8206 315.083 61.8206V61.8206C315.36 61.8206 315.583 62.0444 315.583 62.3206V103.5C315.583 103.776 315.36 104 315.083 104V104C314.807 104 314.583 103.776 314.583 103.5V62.3206Z" fill="#FF453A"/>
<path d="M314.583 46.6539C314.583 46.3778 314.807 46.1539 315.083 46.1539V46.1539C315.36 46.1539 315.583 46.3778 315.583 46.6539V60.1154C315.583 60.3916 315.36 60.6154 315.083 60.6154V60.6154C314.807 60.6154 314.583 60.3916 314.583 60.1154V46.6539Z" fill="white" fill-opacity="0.4"/>
<path d="M314.583 32.1925C314.583 31.9164 314.807 31.6925 315.083 31.6925V31.6925C315.36 31.6925 315.583 31.9164 315.583 32.1925V44.4489C315.583 44.725 315.36 44.9489 315.083 44.9489V44.9489C314.807 44.9489 314.583 44.725 314.583 44.4489V32.1925Z" fill="white" style="mix-blend-mode:multiply"/>
<path d="M314.583 32.1925C314.583 31.9164 314.807 31.6925 315.083 31.6925V31.6925C315.36 31.6925 315.583 31.9164 315.583 32.1925V44.4489C315.583 44.725 315.36 44.9489 315.083 44.9489V44.9489C314.807 44.9489 314.583 44.725 314.583 44.4489V32.1925Z" fill="white" fill-opacity="0.2" style="mix-blend-mode:overlay"/>
<path d="M314.583 32.1925C314.583 31.9164 314.807 31.6925 315.083 31.6925V31.6925C315.36 31.6925 315.583 31.9164 315.583 32.1925V44.4489C315.583 44.725 315.36 44.9489 315.083 44.9489V44.9489C314.807 44.9489 314.583 44.725 314.583 44.4489V32.1925Z" fill="url(#paint11_linear_30111_2419)" fill-opacity="0.6"/>
</g>
<defs>
<linearGradient id="paint0_linear_30111_2419" x1="13.5" y1="58.2052" x2="13.5" y2="67.2436" gradientUnits="userSpaceOnUse">
<stop stop-color="white" stop-opacity="0.05"/>
<stop offset="1" stop-color="white" stop-opacity="0.4"/>
</linearGradient>
<linearGradient id="paint1_linear_30111_2419" x1="40.9165" y1="19.6412" x2="40.9165" y2="32.8976" gradientUnits="userSpaceOnUse">
<stop stop-color="white" stop-opacity="0.05"/>
<stop offset="1" stop-color="white" stop-opacity="0.4"/>
</linearGradient>
<linearGradient id="paint2_linear_30111_2419" x1="68.3335" y1="43.7438" x2="68.3335" y2="53.3848" gradientUnits="userSpaceOnUse">
<stop stop-color="white" stop-opacity="0.05"/>
<stop offset="1" stop-color="white" stop-opacity="0.4"/>
</linearGradient>
<linearGradient id="paint3_linear_30111_2419" x1="95.75" y1="7.58997" x2="95.75" y2="19.6412" gradientUnits="userSpaceOnUse">
<stop stop-color="white" stop-opacity="0.05"/>
<stop offset="1" stop-color="white" stop-opacity="0.4"/>
</linearGradient>
<linearGradient id="paint4_linear_30111_2419" x1="123.167" y1="67.8462" x2="123.167" y2="75.0769" gradientUnits="userSpaceOnUse">
<stop stop-color="white" stop-opacity="0.05"/>
<stop offset="1" stop-color="white" stop-opacity="0.4"/>
</linearGradient>
<linearGradient id="paint5_linear_30111_2419" x1="150.583" y1="31.6925" x2="150.583" y2="44.9489" gradientUnits="userSpaceOnUse">
<stop stop-color="white" stop-opacity="0.05"/>
<stop offset="1" stop-color="white" stop-opacity="0.4"/>
</linearGradient>
<linearGradient id="paint6_linear_30111_2419" x1="178" y1="58.2052" x2="178" y2="67.2436" gradientUnits="userSpaceOnUse">
<stop stop-color="white" stop-opacity="0.05"/>
<stop offset="1" stop-color="white" stop-opacity="0.4"/>
</linearGradient>
<linearGradient id="paint7_linear_30111_2419" x1="205.417" y1="19.6412" x2="205.417" y2="32.8976" gradientUnits="userSpaceOnUse">
<stop stop-color="white" stop-opacity="0.05"/>
<stop offset="1" stop-color="white" stop-opacity="0.4"/>
</linearGradient>
<linearGradient id="paint8_linear_30111_2419" x1="232.833" y1="43.7438" x2="232.833" y2="53.3848" gradientUnits="userSpaceOnUse">
<stop stop-color="white" stop-opacity="0.05"/>
<stop offset="1" stop-color="white" stop-opacity="0.4"/>
</linearGradient>
<linearGradient id="paint9_linear_30111_2419" x1="260.25" y1="7.58997" x2="260.25" y2="19.6412" gradientUnits="userSpaceOnUse">
<stop stop-color="white" stop-opacity="0.05"/>
<stop offset="1" stop-color="white" stop-opacity="0.4"/>
</linearGradient>
<linearGradient id="paint10_linear_30111_2419" x1="287.667" y1="67.8462" x2="287.667" y2="75.0769" gradientUnits="userSpaceOnUse">
<stop stop-color="white" stop-opacity="0.05"/>
<stop offset="1" stop-color="white" stop-opacity="0.4"/>
</linearGradient>
<linearGradient id="paint11_linear_30111_2419" x1="315.083" y1="31.6925" x2="315.083" y2="44.9489" gradientUnits="userSpaceOnUse">
<stop stop-color="white" stop-opacity="0.05"/>
<stop offset="1" stop-color="white" stop-opacity="0.4"/>
</linearGradient>
<clipPath id="clip0_30111_2419">
<rect width="27.4167" height="96.41" fill="white" transform="translate(0 7.58997)"/>
</clipPath>
<clipPath id="clip1_30111_2419">
<rect width="27.4167" height="96.41" fill="white" transform="translate(27.4165 7.58997)"/>
</clipPath>
<clipPath id="clip2_30111_2419">
<rect width="27.4167" height="96.41" fill="white" transform="translate(54.8335 7.58997)"/>
</clipPath>
<clipPath id="clip3_30111_2419">
<rect width="27.4167" height="96.41" fill="white" transform="translate(82.25 7.58997)"/>
</clipPath>
<clipPath id="clip4_30111_2419">
<rect width="27.4167" height="96.41" fill="white" transform="translate(109.667 7.58997)"/>
</clipPath>
<clipPath id="clip5_30111_2419">
<rect width="27.4167" height="96.41" fill="white" transform="translate(137.083 7.58997)"/>
</clipPath>
<clipPath id="clip6_30111_2419">
<rect width="27.4167" height="96.41" fill="white" transform="translate(164.5 7.58997)"/>
</clipPath>
<clipPath id="clip7_30111_2419">
<rect width="27.4167" height="96.41" fill="white" transform="translate(191.917 7.58997)"/>
</clipPath>
<clipPath id="clip8_30111_2419">
<rect width="27.4167" height="96.41" fill="white" transform="translate(219.333 7.58997)"/>
</clipPath>
<clipPath id="clip9_30111_2419">
<rect width="27.4167" height="96.41" fill="white" transform="translate(246.75 7.58997)"/>
</clipPath>
<clipPath id="clip10_30111_2419">
<rect width="27.4167" height="96.41" fill="white" transform="translate(274.167 7.58997)"/>
</clipPath>
<clipPath id="clip11_30111_2419">
<rect width="27.4167" height="96.41" fill="white" transform="translate(301.583 7.58997)"/>
</clipPath>
</defs>
</svg>
