<svg width="1088" height="240" viewBox="0 0 1088 240" fill="none" xmlns="http://www.w3.org/2000/svg">
<path d="M38.6242 224.818H39.8571V232.097C39.8571 232.746 39.7378 233.298 39.4992 233.752C39.2605 234.206 38.9241 234.551 38.4899 234.786C38.0558 235.022 37.5437 235.139 36.9537 235.139C36.3969 235.139 35.9014 235.038 35.4672 234.836C35.033 234.63 34.6916 234.339 34.4431 233.961C34.1945 233.583 34.0702 233.134 34.0702 232.614H35.2833C35.2833 232.902 35.3545 233.154 35.497 233.369C35.6429 233.581 35.8417 233.747 36.0936 233.866C36.3455 233.986 36.6322 234.045 36.9537 234.045C37.3084 234.045 37.61 233.971 37.8585 233.822C38.1071 233.673 38.296 233.454 38.4253 233.165C38.5579 232.874 38.6242 232.518 38.6242 232.097V224.818ZM44.4161 235.179C43.9322 235.179 43.493 235.088 43.0986 234.906C42.7042 234.72 42.391 234.453 42.159 234.105C41.927 233.754 41.811 233.33 41.811 232.832C41.811 232.395 41.8971 232.04 42.0695 231.768C42.2418 231.493 42.4722 231.278 42.7605 231.122C43.0489 230.966 43.3671 230.85 43.7151 230.774C44.0664 230.695 44.4194 230.632 44.774 230.585C45.238 230.526 45.6142 230.481 45.9026 230.451C46.1942 230.418 46.4064 230.363 46.5389 230.287C46.6748 230.211 46.7428 230.078 46.7428 229.889V229.849C46.7428 229.359 46.6085 228.978 46.3401 228.706C46.0749 228.434 45.6722 228.298 45.132 228.298C44.5719 228.298 44.1327 228.421 43.8145 228.666C43.4963 228.911 43.2726 229.173 43.1433 229.452L42.0297 229.054C42.2286 228.59 42.4937 228.229 42.8252 227.97C43.1599 227.708 43.5245 227.526 43.9189 227.423C44.3166 227.317 44.7077 227.264 45.0922 227.264C45.3375 227.264 45.6192 227.294 45.9374 227.354C46.2589 227.41 46.5688 227.528 46.8671 227.707C47.1687 227.886 47.4189 228.156 47.6178 228.517C47.8166 228.878 47.9161 229.362 47.9161 229.969V235H46.7428V233.966H46.6831C46.6036 234.132 46.471 234.309 46.2854 234.498C46.0998 234.687 45.8529 234.848 45.5446 234.98C45.2364 235.113 44.8602 235.179 44.4161 235.179ZM44.5951 234.125C45.0591 234.125 45.4502 234.034 45.7683 233.852C46.0898 233.669 46.3318 233.434 46.4942 233.146C46.6599 232.857 46.7428 232.554 46.7428 232.236V231.162C46.6931 231.222 46.5837 231.276 46.4147 231.326C46.2489 231.372 46.0567 231.414 45.8379 231.45C45.6225 231.483 45.412 231.513 45.2066 231.54C45.0044 231.563 44.8403 231.583 44.7144 231.599C44.4094 231.639 44.1244 231.704 43.8593 231.793C43.5974 231.879 43.3853 232.01 43.2229 232.186C43.0638 232.358 42.9843 232.594 42.9843 232.892C42.9843 233.3 43.1351 233.608 43.4367 233.817C43.7416 234.022 44.1277 234.125 44.5951 234.125ZM51.2309 230.406V235H50.0576V227.364H51.1911V228.557H51.2905C51.4695 228.169 51.7413 227.857 52.1059 227.622C52.4705 227.384 52.9411 227.264 53.5178 227.264C54.0349 227.264 54.4873 227.37 54.8751 227.582C55.2628 227.791 55.5645 228.109 55.7799 228.537C55.9953 228.961 56.103 229.498 56.103 230.148V235H54.9297V230.227C54.9297 229.627 54.774 229.16 54.4624 228.825C54.1509 228.487 53.7233 228.318 53.1797 228.318C52.8052 228.318 52.4705 228.399 52.1755 228.562C51.8838 228.724 51.6535 228.961 51.4844 229.273C51.3154 229.584 51.2309 229.962 51.2309 230.406Z" fill="white"/>
<path d="M124.983 235V224.818H131.088V225.912H126.216V229.352H130.631V230.446H126.216V235H124.983ZM135.682 235.159C134.946 235.159 134.311 234.997 133.778 234.672C133.247 234.344 132.838 233.886 132.55 233.3C132.265 232.71 132.122 232.024 132.122 231.241C132.122 230.459 132.265 229.77 132.55 229.173C132.838 228.573 133.239 228.106 133.753 227.771C134.27 227.433 134.873 227.264 135.562 227.264C135.96 227.264 136.353 227.33 136.741 227.463C137.128 227.596 137.481 227.811 137.8 228.109C138.118 228.404 138.371 228.795 138.56 229.283C138.749 229.77 138.844 230.37 138.844 231.082V231.58H132.957V230.565H137.65C137.65 230.134 137.564 229.75 137.392 229.412C137.223 229.074 136.981 228.807 136.666 228.612C136.354 228.416 135.987 228.318 135.562 228.318C135.095 228.318 134.691 228.434 134.349 228.666C134.011 228.895 133.751 229.193 133.569 229.561C133.386 229.929 133.295 230.323 133.295 230.744V231.42C133.295 231.997 133.395 232.486 133.594 232.887C133.796 233.285 134.076 233.588 134.434 233.797C134.792 234.002 135.208 234.105 135.682 234.105C135.99 234.105 136.268 234.062 136.517 233.976C136.769 233.886 136.986 233.754 137.168 233.578C137.35 233.399 137.491 233.177 137.591 232.912L138.724 233.23C138.605 233.615 138.404 233.953 138.123 234.244C137.841 234.533 137.493 234.758 137.079 234.92C136.664 235.08 136.199 235.159 135.682 235.159ZM140.787 235V224.818H141.961V228.577H142.06C142.146 228.444 142.266 228.275 142.418 228.07C142.574 227.861 142.796 227.675 143.084 227.513C143.376 227.347 143.77 227.264 144.268 227.264C144.911 227.264 145.477 227.425 145.968 227.746C146.458 228.068 146.841 228.524 147.116 229.114C147.391 229.704 147.529 230.4 147.529 231.202C147.529 232.01 147.391 232.711 147.116 233.305C146.841 233.895 146.46 234.352 145.973 234.677C145.486 234.998 144.924 235.159 144.287 235.159C143.797 235.159 143.404 235.078 143.109 234.915C142.814 234.75 142.587 234.562 142.428 234.354C142.269 234.142 142.146 233.966 142.06 233.827H141.921V235H140.787ZM141.941 231.182C141.941 231.759 142.025 232.267 142.194 232.708C142.363 233.146 142.61 233.489 142.935 233.737C143.26 233.982 143.658 234.105 144.128 234.105C144.619 234.105 145.028 233.976 145.356 233.717C145.688 233.455 145.936 233.104 146.102 232.663C146.271 232.219 146.356 231.725 146.356 231.182C146.356 230.645 146.273 230.161 146.107 229.73C145.945 229.296 145.698 228.953 145.366 228.701C145.038 228.446 144.626 228.318 144.128 228.318C143.651 228.318 143.25 228.439 142.925 228.681C142.6 228.92 142.355 229.254 142.189 229.685C142.024 230.113 141.941 230.612 141.941 231.182Z" fill="white"/>
<path d="M215.123 224.818H216.595L220.055 233.27H220.175L223.635 224.818H225.106V235H223.953V227.264H223.854L220.672 235H219.558L216.376 227.264H216.277V235H215.123V224.818ZM229.667 235.179C229.183 235.179 228.744 235.088 228.349 234.906C227.955 234.72 227.641 234.453 227.409 234.105C227.177 233.754 227.061 233.33 227.061 232.832C227.061 232.395 227.148 232.04 227.32 231.768C227.492 231.493 227.723 231.278 228.011 231.122C228.299 230.966 228.618 230.85 228.966 230.774C229.317 230.695 229.67 230.632 230.025 230.585C230.489 230.526 230.865 230.481 231.153 230.451C231.445 230.418 231.657 230.363 231.789 230.287C231.925 230.211 231.993 230.078 231.993 229.889V229.849C231.993 229.359 231.859 228.978 231.591 228.706C231.325 228.434 230.923 228.298 230.382 228.298C229.822 228.298 229.383 228.421 229.065 228.666C228.747 228.911 228.523 229.173 228.394 229.452L227.28 229.054C227.479 228.59 227.744 228.229 228.076 227.97C228.41 227.708 228.775 227.526 229.169 227.423C229.567 227.317 229.958 227.264 230.343 227.264C230.588 227.264 230.87 227.294 231.188 227.354C231.509 227.41 231.819 227.528 232.118 227.707C232.419 227.886 232.669 228.156 232.868 228.517C233.067 228.878 233.167 229.362 233.167 229.969V235H231.993V233.966H231.934C231.854 234.132 231.721 234.309 231.536 234.498C231.35 234.687 231.103 234.848 230.795 234.98C230.487 235.113 230.111 235.179 229.667 235.179ZM229.846 234.125C230.31 234.125 230.701 234.034 231.019 233.852C231.34 233.669 231.582 233.434 231.745 233.146C231.91 232.857 231.993 232.554 231.993 232.236V231.162C231.944 231.222 231.834 231.276 231.665 231.326C231.499 231.372 231.307 231.414 231.088 231.45C230.873 231.483 230.663 231.513 230.457 231.54C230.255 231.563 230.091 231.583 229.965 231.599C229.66 231.639 229.375 231.704 229.11 231.793C228.848 231.879 228.636 232.01 228.473 232.186C228.314 232.358 228.235 232.594 228.235 232.892C228.235 233.3 228.386 233.608 228.687 233.817C228.992 234.022 229.378 234.125 229.846 234.125ZM235.308 235V227.364H236.442V228.517H236.521C236.66 228.139 236.912 227.833 237.277 227.597C237.641 227.362 238.052 227.244 238.51 227.244C238.596 227.244 238.704 227.246 238.833 227.249C238.962 227.253 239.06 227.258 239.126 227.264V228.457C239.086 228.447 238.995 228.433 238.853 228.413C238.714 228.389 238.566 228.378 238.41 228.378C238.039 228.378 237.708 228.456 237.416 228.612C237.128 228.764 236.899 228.976 236.73 229.248C236.564 229.516 236.481 229.823 236.481 230.168V235H235.308Z" fill="white"/>
<path d="M307.383 235H306.091L309.829 224.818H311.102L314.841 235H313.548L310.505 226.429H310.426L307.383 235ZM307.861 231.023H313.071V232.116H307.861V231.023ZM316.268 237.864V227.364H317.401V228.577H317.54C317.626 228.444 317.746 228.275 317.898 228.07C318.054 227.861 318.276 227.675 318.564 227.513C318.856 227.347 319.25 227.264 319.748 227.264C320.391 227.264 320.957 227.425 321.448 227.746C321.938 228.068 322.321 228.524 322.596 229.114C322.871 229.704 323.009 230.4 323.009 231.202C323.009 232.01 322.871 232.711 322.596 233.305C322.321 233.895 321.94 234.352 321.453 234.677C320.966 234.998 320.404 235.159 319.768 235.159C319.277 235.159 318.884 235.078 318.589 234.915C318.294 234.75 318.067 234.562 317.908 234.354C317.749 234.142 317.626 233.966 317.54 233.827H317.441V237.864H316.268ZM317.421 231.182C317.421 231.759 317.505 232.267 317.675 232.708C317.844 233.146 318.09 233.489 318.415 233.737C318.74 233.982 319.138 234.105 319.608 234.105C320.099 234.105 320.508 233.976 320.836 233.717C321.168 233.455 321.416 233.104 321.582 232.663C321.751 232.219 321.836 231.725 321.836 231.182C321.836 230.645 321.753 230.161 321.587 229.73C321.425 229.296 321.178 228.953 320.846 228.701C320.518 228.446 320.106 228.318 319.608 228.318C319.131 228.318 318.73 228.439 318.405 228.681C318.081 228.92 317.835 229.254 317.67 229.685C317.504 230.113 317.421 230.612 317.421 231.182ZM324.799 235V227.364H325.932V228.517H326.012C326.151 228.139 326.403 227.833 326.768 227.597C327.132 227.362 327.543 227.244 328 227.244C328.087 227.244 328.194 227.246 328.324 227.249C328.453 227.253 328.551 227.258 328.617 227.264V228.457C328.577 228.447 328.486 228.433 328.344 228.413C328.204 228.389 328.057 228.378 327.901 228.378C327.53 228.378 327.198 228.456 326.907 228.612C326.618 228.764 326.39 228.976 326.221 229.248C326.055 229.516 325.972 229.823 325.972 230.168V235H324.799Z" fill="white"/>
<path d="M395.301 224.818H396.773L400.233 233.27H400.352L403.813 224.818H405.284V235H404.131V227.264H404.031L400.849 235H399.736L396.554 227.264H396.455V235H395.301V224.818ZM409.844 235.179C409.36 235.179 408.921 235.088 408.527 234.906C408.132 234.72 407.819 234.453 407.587 234.105C407.355 233.754 407.239 233.33 407.239 232.832C407.239 232.395 407.325 232.04 407.498 231.768C407.67 231.493 407.9 231.278 408.189 231.122C408.477 230.966 408.795 230.85 409.143 230.774C409.495 230.695 409.848 230.632 410.202 230.585C410.666 230.526 411.042 230.481 411.331 230.451C411.622 230.418 411.835 230.363 411.967 230.287C412.103 230.211 412.171 230.078 412.171 229.889V229.849C412.171 229.359 412.037 228.978 411.768 228.706C411.503 228.434 411.1 228.298 410.56 228.298C410 228.298 409.561 228.421 409.243 228.666C408.925 228.911 408.701 229.173 408.572 229.452L407.458 229.054C407.657 228.59 407.922 228.229 408.253 227.97C408.588 227.708 408.953 227.526 409.347 227.423C409.745 227.317 410.136 227.264 410.52 227.264C410.766 227.264 411.047 227.294 411.366 227.354C411.687 227.41 411.997 227.528 412.295 227.707C412.597 227.886 412.847 228.156 413.046 228.517C413.245 228.878 413.344 229.362 413.344 229.969V235H412.171V233.966H412.111C412.032 234.132 411.899 234.309 411.714 234.498C411.528 234.687 411.281 234.848 410.973 234.98C410.665 235.113 410.288 235.179 409.844 235.179ZM410.023 234.125C410.487 234.125 410.878 234.034 411.197 233.852C411.518 233.669 411.76 233.434 411.922 233.146C412.088 232.857 412.171 232.554 412.171 232.236V231.162C412.121 231.222 412.012 231.276 411.843 231.326C411.677 231.372 411.485 231.414 411.266 231.45C411.051 231.483 410.84 231.513 410.635 231.54C410.433 231.563 410.269 231.583 410.143 231.599C409.838 231.639 409.553 231.704 409.287 231.793C409.026 231.879 408.814 232.01 408.651 232.186C408.492 232.358 408.412 232.594 408.412 232.892C408.412 233.3 408.563 233.608 408.865 233.817C409.17 234.022 409.556 234.125 410.023 234.125ZM415.968 237.864C415.769 237.864 415.592 237.847 415.436 237.814C415.28 237.784 415.173 237.754 415.113 237.724L415.411 236.69C415.696 236.763 415.948 236.79 416.167 236.77C416.386 236.75 416.58 236.652 416.749 236.477C416.921 236.304 417.078 236.024 417.221 235.636L417.44 235.04L414.616 227.364H415.889L417.996 233.449H418.076L420.184 227.364H421.457L418.215 236.114C418.069 236.508 417.889 236.835 417.673 237.093C417.458 237.355 417.208 237.549 416.923 237.675C416.641 237.801 416.323 237.864 415.968 237.864Z" fill="white"/>
<path d="M491.835 224.818H493.068V232.097C493.068 232.746 492.948 233.298 492.71 233.752C492.471 234.206 492.135 234.551 491.7 234.786C491.266 235.022 490.754 235.139 490.164 235.139C489.607 235.139 489.112 235.038 488.678 234.836C488.243 234.63 487.902 234.339 487.654 233.961C487.405 233.583 487.281 233.134 487.281 232.614H488.494C488.494 232.902 488.565 233.154 488.707 233.369C488.853 233.581 489.052 233.747 489.304 233.866C489.556 233.986 489.843 234.045 490.164 234.045C490.519 234.045 490.82 233.971 491.069 233.822C491.318 233.673 491.506 233.454 491.636 233.165C491.768 232.874 491.835 232.518 491.835 232.097V224.818ZM500.192 231.878V227.364H501.365V235H500.192V233.707H500.112C499.933 234.095 499.655 234.425 499.277 234.697C498.899 234.965 498.422 235.099 497.845 235.099C497.368 235.099 496.944 234.995 496.573 234.786C496.201 234.574 495.91 234.256 495.698 233.832C495.485 233.404 495.379 232.866 495.379 232.216V227.364H496.553V232.136C496.553 232.693 496.708 233.137 497.02 233.469C497.335 233.8 497.736 233.966 498.223 233.966C498.515 233.966 498.811 233.891 499.113 233.742C499.418 233.593 499.673 233.364 499.879 233.056C500.087 232.748 500.192 232.355 500.192 231.878ZM504.687 230.406V235H503.514V227.364H504.648V228.557H504.747C504.926 228.169 505.198 227.857 505.562 227.622C505.927 227.384 506.398 227.264 506.974 227.264C507.491 227.264 507.944 227.37 508.332 227.582C508.719 227.791 509.021 228.109 509.236 228.537C509.452 228.961 509.56 229.498 509.56 230.148V235H508.386V230.227C508.386 229.627 508.231 229.16 507.919 228.825C507.607 228.487 507.18 228.318 506.636 228.318C506.262 228.318 505.927 228.399 505.632 228.562C505.34 228.724 505.11 228.961 504.941 229.273C504.772 229.584 504.687 229.962 504.687 230.406Z" fill="white"/>
<path d="M584.935 224.818H586.168V232.097C586.168 232.746 586.048 233.298 585.81 233.752C585.571 234.206 585.235 234.551 584.8 234.786C584.366 235.022 583.854 235.139 583.264 235.139C582.707 235.139 582.212 235.038 581.778 234.836C581.344 234.63 581.002 234.339 580.754 233.961C580.505 233.583 580.381 233.134 580.381 232.614H581.594C581.594 232.902 581.665 233.154 581.808 233.369C581.953 233.581 582.152 233.747 582.404 233.866C582.656 233.986 582.943 234.045 583.264 234.045C583.619 234.045 583.921 233.971 584.169 233.822C584.418 233.673 584.607 233.454 584.736 233.165C584.868 232.874 584.935 232.518 584.935 232.097V224.818ZM593.292 231.878V227.364H594.465V235H593.292V233.707H593.212C593.033 234.095 592.755 234.425 592.377 234.697C591.999 234.965 591.522 235.099 590.945 235.099C590.468 235.099 590.044 234.995 589.673 234.786C589.301 234.574 589.01 234.256 588.798 233.832C588.586 233.404 588.479 232.866 588.479 232.216V227.364H589.653V232.136C589.653 232.693 589.809 233.137 590.12 233.469C590.435 233.8 590.836 233.966 591.323 233.966C591.615 233.966 591.912 233.891 592.213 233.742C592.518 233.593 592.773 233.364 592.979 233.056C593.188 232.748 593.292 232.355 593.292 231.878ZM597.788 224.818V235H596.614V224.818H597.788Z" fill="white"/>
<path d="M668.587 235H667.294L671.033 224.818H672.306L676.044 235H674.752L671.709 226.429H671.63L668.587 235ZM669.064 231.023H674.274V232.116H669.064V231.023ZM682.284 231.878V227.364H683.457V235H682.284V233.707H682.204C682.025 234.095 681.747 234.425 681.369 234.697C680.991 234.965 680.514 235.099 679.937 235.099C679.46 235.099 679.036 234.995 678.664 234.786C678.293 234.574 678.001 234.256 677.789 233.832C677.577 233.404 677.471 232.866 677.471 232.216V227.364H678.644V232.136C678.644 232.693 678.8 233.137 679.112 233.469C679.427 233.8 679.828 233.966 680.315 233.966C680.607 233.966 680.903 233.891 681.205 233.742C681.51 233.593 681.765 233.364 681.97 233.056C682.179 232.748 682.284 232.355 682.284 231.878ZM688.688 238.023C688.122 238.023 687.634 237.95 687.227 237.804C686.819 237.661 686.479 237.473 686.207 237.237C685.939 237.005 685.725 236.757 685.566 236.491L686.501 235.835C686.607 235.974 686.741 236.134 686.904 236.312C687.066 236.495 687.288 236.652 687.57 236.785C687.855 236.921 688.228 236.989 688.688 236.989C689.305 236.989 689.814 236.839 690.215 236.541C690.616 236.243 690.816 235.776 690.816 235.139V233.588H690.717C690.631 233.727 690.508 233.9 690.349 234.105C690.193 234.307 689.968 234.488 689.673 234.647C689.381 234.803 688.987 234.881 688.489 234.881C687.873 234.881 687.319 234.735 686.829 234.443C686.342 234.152 685.956 233.727 685.671 233.17C685.389 232.614 685.248 231.937 685.248 231.142C685.248 230.36 685.386 229.679 685.661 229.099C685.936 228.515 686.319 228.065 686.809 227.746C687.3 227.425 687.866 227.264 688.509 227.264C689.006 227.264 689.401 227.347 689.693 227.513C689.988 227.675 690.213 227.861 690.369 228.07C690.528 228.275 690.65 228.444 690.737 228.577H690.856V227.364H691.989V235.219C691.989 235.875 691.84 236.409 691.542 236.82C691.247 237.234 690.849 237.537 690.349 237.729C689.852 237.925 689.298 238.023 688.688 238.023ZM688.649 233.827C689.119 233.827 689.517 233.719 689.842 233.504C690.167 233.288 690.413 232.978 690.582 232.574C690.752 232.17 690.836 231.686 690.836 231.122C690.836 230.572 690.753 230.086 690.587 229.665C690.422 229.245 690.176 228.915 689.852 228.676C689.527 228.437 689.126 228.318 688.649 228.318C688.151 228.318 687.737 228.444 687.406 228.696C687.078 228.948 686.831 229.286 686.665 229.71C686.502 230.134 686.421 230.605 686.421 231.122C686.421 231.652 686.504 232.121 686.67 232.529C686.839 232.933 687.087 233.252 687.416 233.484C687.747 233.712 688.158 233.827 688.649 233.827Z" fill="white"/>
<path d="M764.664 227.364C764.604 226.86 764.362 226.469 763.938 226.19C763.514 225.912 762.993 225.773 762.377 225.773C761.926 225.773 761.532 225.846 761.194 225.991C760.859 226.137 760.597 226.338 760.408 226.593C760.222 226.848 760.13 227.138 760.13 227.463C760.13 227.735 760.194 227.969 760.324 228.164C760.456 228.356 760.625 228.517 760.831 228.646C761.036 228.772 761.252 228.877 761.477 228.96C761.702 229.039 761.91 229.104 762.098 229.153L763.133 229.432C763.398 229.501 763.693 229.598 764.017 229.72C764.346 229.843 764.659 230.01 764.957 230.222C765.259 230.431 765.507 230.7 765.703 231.028C765.898 231.356 765.996 231.759 765.996 232.236C765.996 232.786 765.852 233.283 765.564 233.727C765.279 234.171 764.861 234.524 764.311 234.786C763.764 235.048 763.099 235.179 762.317 235.179C761.588 235.179 760.957 235.061 760.423 234.826C759.893 234.591 759.475 234.263 759.17 233.842C758.869 233.421 758.698 232.932 758.658 232.375H759.931C759.964 232.759 760.093 233.078 760.319 233.33C760.547 233.578 760.836 233.764 761.184 233.886C761.535 234.006 761.913 234.065 762.317 234.065C762.788 234.065 763.21 233.989 763.585 233.837C763.959 233.681 764.256 233.465 764.475 233.19C764.694 232.912 764.803 232.587 764.803 232.216C764.803 231.878 764.709 231.603 764.52 231.391C764.331 231.179 764.082 231.006 763.774 230.874C763.466 230.741 763.133 230.625 762.775 230.526L761.522 230.168C760.726 229.939 760.097 229.612 759.633 229.188C759.168 228.764 758.936 228.209 758.936 227.523C758.936 226.953 759.091 226.455 759.399 226.031C759.71 225.604 760.128 225.272 760.652 225.037C761.179 224.798 761.767 224.679 762.417 224.679C763.073 224.679 763.656 224.797 764.167 225.032C764.677 225.264 765.081 225.582 765.38 225.987C765.681 226.391 765.84 226.85 765.857 227.364H764.664ZM771.066 235.159C770.33 235.159 769.695 234.997 769.162 234.672C768.632 234.344 768.222 233.886 767.934 233.3C767.649 232.71 767.506 232.024 767.506 231.241C767.506 230.459 767.649 229.77 767.934 229.173C768.222 228.573 768.623 228.106 769.137 227.771C769.654 227.433 770.257 227.264 770.947 227.264C771.344 227.264 771.737 227.33 772.125 227.463C772.513 227.596 772.866 227.811 773.184 228.109C773.502 228.404 773.756 228.795 773.944 229.283C774.133 229.77 774.228 230.37 774.228 231.082V231.58H768.341V230.565H773.035C773.035 230.134 772.949 229.75 772.776 229.412C772.607 229.074 772.365 228.807 772.05 228.612C771.739 228.416 771.371 228.318 770.947 228.318C770.479 228.318 770.075 228.434 769.734 228.666C769.395 228.895 769.135 229.193 768.953 229.561C768.771 229.929 768.68 230.323 768.68 230.744V231.42C768.68 231.997 768.779 232.486 768.978 232.887C769.18 233.285 769.46 233.588 769.818 233.797C770.176 234.002 770.592 234.105 771.066 234.105C771.374 234.105 771.653 234.062 771.901 233.976C772.153 233.886 772.37 233.754 772.552 233.578C772.735 233.399 772.876 233.177 772.975 232.912L774.109 233.23C773.989 233.615 773.789 233.953 773.507 234.244C773.225 234.533 772.877 234.758 772.463 234.92C772.049 235.08 771.583 235.159 771.066 235.159ZM776.013 237.864V227.364H777.146V228.577H777.285C777.372 228.444 777.491 228.275 777.643 228.07C777.799 227.861 778.021 227.675 778.31 227.513C778.601 227.347 778.996 227.264 779.493 227.264C780.136 227.264 780.703 227.425 781.193 227.746C781.684 228.068 782.066 228.524 782.341 229.114C782.617 229.704 782.754 230.4 782.754 231.202C782.754 232.01 782.617 232.711 782.341 233.305C782.066 233.895 781.685 234.352 781.198 234.677C780.711 234.998 780.149 235.159 779.513 235.159C779.022 235.159 778.629 235.078 778.334 234.915C778.039 234.75 777.812 234.562 777.653 234.354C777.494 234.142 777.372 233.966 777.285 233.827H777.186V237.864H776.013ZM777.166 231.182C777.166 231.759 777.251 232.267 777.42 232.708C777.589 233.146 777.836 233.489 778.16 233.737C778.485 233.982 778.883 234.105 779.354 234.105C779.844 234.105 780.253 233.976 780.582 233.717C780.913 233.455 781.162 233.104 781.327 232.663C781.496 232.219 781.581 231.725 781.581 231.182C781.581 230.645 781.498 230.161 781.332 229.73C781.17 229.296 780.923 228.953 780.591 228.701C780.263 228.446 779.851 228.318 779.354 228.318C778.876 228.318 778.475 228.439 778.15 228.681C777.826 228.92 777.58 229.254 777.415 229.685C777.249 230.113 777.166 230.612 777.166 231.182Z" fill="white"/>
<path d="M859.372 229.909C859.372 230.983 859.178 231.911 858.79 232.693C858.403 233.475 857.871 234.079 857.194 234.503C856.518 234.927 855.746 235.139 854.878 235.139C854.009 235.139 853.237 234.927 852.561 234.503C851.885 234.079 851.353 233.475 850.965 232.693C850.577 231.911 850.383 230.983 850.383 229.909C850.383 228.835 850.577 227.907 850.965 227.125C851.353 226.343 851.885 225.74 852.561 225.315C853.237 224.891 854.009 224.679 854.878 224.679C855.746 224.679 856.518 224.891 857.194 225.315C857.871 225.74 858.403 226.343 858.79 227.125C859.178 227.907 859.372 228.835 859.372 229.909ZM858.179 229.909C858.179 229.027 858.031 228.283 857.736 227.677C857.445 227.07 857.049 226.611 856.548 226.3C856.051 225.988 855.494 225.832 854.878 225.832C854.261 225.832 853.703 225.988 853.202 226.3C852.705 226.611 852.309 227.07 852.014 227.677C851.722 228.283 851.577 229.027 851.577 229.909C851.577 230.791 851.722 231.535 852.014 232.141C852.309 232.748 852.705 233.207 853.202 233.518C853.703 233.83 854.261 233.986 854.878 233.986C855.494 233.986 856.051 233.83 856.548 233.518C857.049 233.207 857.445 232.748 857.736 232.141C858.031 231.535 858.179 230.791 858.179 229.909ZM864.388 235.159C863.672 235.159 863.056 234.99 862.539 234.652C862.022 234.314 861.624 233.848 861.346 233.255C861.067 232.662 860.928 231.984 860.928 231.222C860.928 230.446 861.071 229.762 861.356 229.168C861.644 228.572 862.045 228.106 862.559 227.771C863.076 227.433 863.679 227.264 864.368 227.264C864.905 227.264 865.389 227.364 865.82 227.562C866.251 227.761 866.604 228.04 866.879 228.398C867.154 228.756 867.325 229.173 867.391 229.651H866.218C866.128 229.303 865.93 228.994 865.621 228.726C865.316 228.454 864.905 228.318 864.388 228.318C863.931 228.318 863.53 228.437 863.185 228.676C862.844 228.911 862.577 229.245 862.385 229.675C862.196 230.103 862.101 230.605 862.101 231.182C862.101 231.772 862.194 232.286 862.38 232.723C862.569 233.161 862.834 233.5 863.175 233.742C863.52 233.984 863.924 234.105 864.388 234.105C864.693 234.105 864.97 234.052 865.219 233.946C865.467 233.84 865.678 233.688 865.85 233.489C866.022 233.29 866.145 233.051 866.218 232.773H867.391C867.325 233.223 867.161 233.629 866.899 233.991C866.641 234.349 866.297 234.634 865.87 234.846C865.446 235.055 864.952 235.159 864.388 235.159ZM872.427 227.364V228.358H868.47V227.364H872.427ZM869.623 225.534H870.797V232.812C870.797 233.144 870.845 233.393 870.941 233.558C871.04 233.721 871.166 233.83 871.319 233.886C871.475 233.939 871.639 233.966 871.811 233.966C871.94 233.966 872.046 233.959 872.129 233.946C872.212 233.929 872.278 233.916 872.328 233.906L872.567 234.96C872.487 234.99 872.376 235.02 872.234 235.05C872.091 235.083 871.91 235.099 871.692 235.099C871.36 235.099 871.035 235.028 870.717 234.886C870.402 234.743 870.141 234.526 869.932 234.234C869.726 233.943 869.623 233.575 869.623 233.131V225.534Z" fill="white"/>
<path d="M948.1 224.818V235H946.906L941.358 227.006H941.259V235H940.026V224.818H941.219L946.787 232.832H946.887V224.818H948.1ZM953.51 235.159C952.821 235.159 952.216 234.995 951.695 234.667C951.178 234.339 950.774 233.88 950.482 233.29C950.194 232.7 950.05 232.01 950.05 231.222C950.05 230.426 950.194 229.732 950.482 229.138C950.774 228.545 951.178 228.085 951.695 227.756C952.216 227.428 952.821 227.264 953.51 227.264C954.199 227.264 954.803 227.428 955.32 227.756C955.84 228.085 956.244 228.545 956.533 229.138C956.824 229.732 956.97 230.426 956.97 231.222C956.97 232.01 956.824 232.7 956.533 233.29C956.244 233.88 955.84 234.339 955.32 234.667C954.803 234.995 954.199 235.159 953.51 235.159ZM953.51 234.105C954.034 234.105 954.464 233.971 954.803 233.702C955.141 233.434 955.391 233.081 955.553 232.643C955.716 232.206 955.797 231.732 955.797 231.222C955.797 230.711 955.716 230.236 955.553 229.795C955.391 229.354 955.141 228.998 954.803 228.726C954.464 228.454 954.034 228.318 953.51 228.318C952.986 228.318 952.555 228.454 952.217 228.726C951.879 228.998 951.629 229.354 951.467 229.795C951.304 230.236 951.223 230.711 951.223 231.222C951.223 231.732 951.304 232.206 951.467 232.643C951.629 233.081 951.879 233.434 952.217 233.702C952.555 233.971 952.986 234.105 953.51 234.105ZM964.732 227.364L961.908 235H960.715L957.891 227.364H959.164L961.272 233.449H961.351L963.459 227.364H964.732Z" fill="white"/>
<path d="M1034.03 235H1030.88V224.818H1034.16C1035.15 224.818 1036 225.022 1036.7 225.43C1037.4 225.834 1037.94 226.416 1038.32 227.175C1038.69 227.93 1038.88 228.835 1038.88 229.889C1038.88 230.95 1038.69 231.863 1038.31 232.629C1037.93 233.391 1037.38 233.978 1036.66 234.388C1035.94 234.796 1035.06 235 1034.03 235ZM1032.12 233.906H1033.95C1034.79 233.906 1035.49 233.744 1036.04 233.419C1036.59 233.094 1037.01 232.632 1037.28 232.032C1037.55 231.432 1037.68 230.718 1037.68 229.889C1037.68 229.067 1037.55 228.36 1037.28 227.766C1037.01 227.17 1036.61 226.712 1036.08 226.394C1035.55 226.073 1034.88 225.912 1034.09 225.912H1032.12V233.906ZM1043.99 235.159C1043.25 235.159 1042.62 234.997 1042.08 234.672C1041.55 234.344 1041.15 233.886 1040.86 233.3C1040.57 232.71 1040.43 232.024 1040.43 231.241C1040.43 230.459 1040.57 229.77 1040.86 229.173C1041.15 228.573 1041.55 228.106 1042.06 227.771C1042.58 227.433 1043.18 227.264 1043.87 227.264C1044.27 227.264 1044.66 227.33 1045.05 227.463C1045.44 227.596 1045.79 227.811 1046.11 228.109C1046.42 228.404 1046.68 228.795 1046.87 229.283C1047.06 229.77 1047.15 230.37 1047.15 231.082V231.58H1041.26V230.565H1045.96C1045.96 230.134 1045.87 229.75 1045.7 229.412C1045.53 229.074 1045.29 228.807 1044.97 228.612C1044.66 228.416 1044.29 228.318 1043.87 228.318C1043.4 228.318 1043 228.434 1042.66 228.666C1042.32 228.895 1042.06 229.193 1041.88 229.561C1041.69 229.929 1041.6 230.323 1041.6 230.744V231.42C1041.6 231.997 1041.7 232.486 1041.9 232.887C1042.1 233.285 1042.38 233.588 1042.74 233.797C1043.1 234.002 1043.51 234.105 1043.99 234.105C1044.3 234.105 1044.58 234.062 1044.82 233.976C1045.08 233.886 1045.29 233.754 1045.48 233.578C1045.66 233.399 1045.8 233.177 1045.9 232.912L1047.03 233.23C1046.91 233.615 1046.71 233.953 1046.43 234.244C1046.15 234.533 1045.8 234.758 1045.39 234.92C1044.97 235.08 1044.51 235.159 1043.99 235.159ZM1052.04 235.159C1051.32 235.159 1050.71 234.99 1050.19 234.652C1049.67 234.314 1049.27 233.848 1049 233.255C1048.72 232.662 1048.58 231.984 1048.58 231.222C1048.58 230.446 1048.72 229.762 1049.01 229.168C1049.29 228.572 1049.69 228.106 1050.21 227.771C1050.73 227.433 1051.33 227.264 1052.02 227.264C1052.55 227.264 1053.04 227.364 1053.47 227.562C1053.9 227.761 1054.25 228.04 1054.53 228.398C1054.8 228.756 1054.97 229.173 1055.04 229.651H1053.87C1053.78 229.303 1053.58 228.994 1053.27 228.726C1052.97 228.454 1052.55 228.318 1052.04 228.318C1051.58 228.318 1051.18 228.437 1050.83 228.676C1050.49 228.911 1050.23 229.245 1050.03 229.675C1049.85 230.103 1049.75 230.605 1049.75 231.182C1049.75 231.772 1049.84 232.286 1050.03 232.723C1050.22 233.161 1050.48 233.5 1050.82 233.742C1051.17 233.984 1051.57 234.105 1052.04 234.105C1052.34 234.105 1052.62 234.052 1052.87 233.946C1053.12 233.84 1053.33 233.688 1053.5 233.489C1053.67 233.29 1053.79 233.051 1053.87 232.773H1055.04C1054.97 233.223 1054.81 233.629 1054.55 233.991C1054.29 234.349 1053.95 234.634 1053.52 234.846C1053.1 235.055 1052.6 235.159 1052.04 235.159Z" fill="white"/>
<path d="M10.3335 96C10.3335 95.4477 10.7812 95 11.3335 95C11.8858 95 12.3335 95.4477 12.3335 96V109C12.3335 109.552 11.8858 110 11.3335 110C10.7812 110 10.3335 109.552 10.3335 109V96Z" fill="white"/>
<path d="M10.3335 113C10.3335 112.448 10.7812 112 11.3335 112C11.8858 112 12.3335 112.448 12.3335 113V128C12.3335 128.552 11.8858 129 11.3335 129C10.7812 129 10.3335 128.552 10.3335 128V113Z" fill="white" fill-opacity="0.4"/>
<path d="M10.3335 132C10.3335 131.448 10.7812 131 11.3335 131C11.8858 131 12.3335 131.448 12.3335 132V211C12.3335 211.552 11.8858 212 11.3335 212C10.7812 212 10.3335 211.552 10.3335 211V132Z" fill="#FF453A"/>
<path d="M33 81C33 80.4477 33.4477 80 34 80C34.5523 80 35 80.4477 35 81V97C35 97.5523 34.5523 98 34 98C33.4477 98 33 97.5523 33 97V81Z" fill="white"/>
<path d="M33 101C33 100.448 33.4477 100 34 100C34.5523 100 35 100.448 35 101V114C35 114.552 34.5523 115 34 115C33.4477 115 33 114.552 33 114V101Z" fill="white" fill-opacity="0.4"/>
<path d="M33 118C33 117.448 33.4477 117 34 117C34.5523 117 35 117.448 35 118V211C35 211.552 34.5523 212 34 212C33.4477 212 33 211.552 33 211V118Z" fill="#FF453A"/>
<path d="M55.667 76C55.667 75.4477 56.1147 75 56.667 75C57.2193 75 57.667 75.4477 57.667 76V96C57.667 96.5523 57.2193 97 56.667 97C56.1147 97 55.667 96.5523 55.667 96V76Z" fill="white"/>
<path d="M55.667 100C55.667 99.4477 56.1147 99 56.667 99C57.2193 99 57.667 99.4477 57.667 100V116C57.667 116.552 57.2193 117 56.667 117C56.1147 117 55.667 116.552 55.667 116V100Z" fill="white" fill-opacity="0.4"/>
<path d="M55.667 120C55.667 119.448 56.1147 119 56.667 119C57.2193 119 57.667 119.448 57.667 120V211C57.667 211.552 57.2193 212 56.667 212C56.1147 212 55.667 211.552 55.667 211V120Z" fill="#FF453A"/>
<path d="M78.3335 49C78.3335 48.4477 78.7812 48 79.3335 48C79.8858 48 80.3335 48.4477 80.3335 49V70C80.3335 70.5523 79.8858 71 79.3335 71C78.7812 71 78.3335 70.5523 78.3335 70V49Z" fill="white"/>
<path d="M78.3335 74C78.3335 73.4477 78.7812 73 79.3335 73C79.8858 73 80.3335 73.4477 80.3335 74V100C80.3335 100.552 79.8858 101 79.3335 101C78.7812 101 78.3335 100.552 78.3335 100V74Z" fill="white" fill-opacity="0.4"/>
<path d="M78.3335 104C78.3335 103.448 78.7812 103 79.3335 103C79.8858 103 80.3335 103.448 80.3335 104V211C80.3335 211.552 79.8858 212 79.3335 212C78.7812 212 78.3335 211.552 78.3335 211V104Z" fill="#FF453A"/>
<path d="M101 33C101 32.4477 101.448 32 102 32C102.552 32 103 32.4477 103 33V68C103 68.5523 102.552 69 102 69C101.448 69 101 68.5523 101 68V33Z" fill="white"/>
<path d="M101 72C101 71.4477 101.448 71 102 71C102.552 71 103 71.4477 103 72V113C103 113.552 102.552 114 102 114C101.448 114 101 113.552 101 113V72Z" fill="white" fill-opacity="0.4"/>
<path d="M101 117C101 116.448 101.448 116 102 116C102.552 116 103 116.448 103 117V211C103 211.552 102.552 212 102 212C101.448 212 101 211.552 101 211V117Z" fill="#FF453A"/>
<path d="M123.667 52C123.667 51.4477 124.115 51 124.667 51C125.219 51 125.667 51.4477 125.667 52V72C125.667 72.5523 125.219 73 124.667 73C124.115 73 123.667 72.5523 123.667 72V52Z" fill="white"/>
<path d="M123.667 76C123.667 75.4477 124.115 75 124.667 75C125.219 75 125.667 75.4477 125.667 76V96C125.667 96.5523 125.219 97 124.667 97C124.115 97 123.667 96.5523 123.667 96V76Z" fill="white" fill-opacity="0.4"/>
<path d="M123.667 100C123.667 99.4477 124.115 99 124.667 99C125.219 99 125.667 99.4477 125.667 100V211C125.667 211.552 125.219 212 124.667 212C124.115 212 123.667 211.552 123.667 211V100Z" fill="#FF453A"/>
<path d="M146.333 72C146.333 71.4477 146.781 71 147.333 71C147.886 71 148.333 71.4477 148.333 72V89C148.333 89.5523 147.886 90 147.333 90C146.781 90 146.333 89.5523 146.333 89V72Z" fill="white"/>
<path d="M146.333 93C146.333 92.4477 146.781 92 147.333 92C147.886 92 148.333 92.4477 148.333 93V104C148.333 104.552 147.886 105 147.333 105C146.781 105 146.333 104.552 146.333 104V93Z" fill="white" fill-opacity="0.4"/>
<path d="M146.333 108C146.333 107.448 146.781 107 147.333 107C147.886 107 148.333 107.448 148.333 108V211C148.333 211.552 147.886 212 147.333 212C146.781 212 146.333 211.552 146.333 211V108Z" fill="#FF453A"/>
<path d="M169 60C169 59.4477 169.448 59 170 59C170.552 59 171 59.4477 171 60V77C171 77.5523 170.552 78 170 78C169.448 78 169 77.5523 169 77V60Z" fill="white"/>
<path d="M169 81C169 80.4477 169.448 80 170 80C170.552 80 171 80.4477 171 81V111C171 111.552 170.552 112 170 112C169.448 112 169 111.552 169 111V81Z" fill="white" fill-opacity="0.4"/>
<path d="M169 115C169 114.448 169.448 114 170 114C170.552 114 171 114.448 171 115V211C171 211.552 170.552 212 170 212C169.448 212 169 211.552 169 211V115Z" fill="#FF453A"/>
<path d="M191.667 89C191.667 88.4477 192.115 88 192.667 88C193.219 88 193.667 88.4477 193.667 89V112C193.667 112.552 193.219 113 192.667 113C192.115 113 191.667 112.552 191.667 112V89Z" fill="white"/>
<path d="M191.667 116C191.667 115.448 192.115 115 192.667 115C193.219 115 193.667 115.448 193.667 116V135C193.667 135.552 193.219 136 192.667 136C192.115 136 191.667 135.552 191.667 135V116Z" fill="white" fill-opacity="0.4"/>
<path d="M191.667 139C191.667 138.448 192.115 138 192.667 138C193.219 138 193.667 138.448 193.667 139V211C193.667 211.552 193.219 212 192.667 212C192.115 212 191.667 211.552 191.667 211V139Z" fill="#FF453A"/>
<path d="M214.333 72C214.333 71.4477 214.781 71 215.333 71C215.886 71 216.333 71.4477 216.333 72V92C216.333 92.5523 215.886 93 215.333 93C214.781 93 214.333 92.5523 214.333 92V72Z" fill="white"/>
<path d="M214.333 96C214.333 95.4477 214.781 95 215.333 95C215.886 95 216.333 95.4477 216.333 96V112C216.333 112.552 215.886 113 215.333 113C214.781 113 214.333 112.552 214.333 112V96Z" fill="white" fill-opacity="0.4"/>
<path d="M214.333 116C214.333 115.448 214.781 115 215.333 115C215.886 115 216.333 115.448 216.333 116V211C216.333 211.552 215.886 212 215.333 212C214.781 212 214.333 211.552 214.333 211V116Z" fill="#FF453A"/>
<path d="M237 82C237 81.4477 237.448 81 238 81C238.552 81 239 81.4477 239 82V101C239 101.552 238.552 102 238 102C237.448 102 237 101.552 237 101V82Z" fill="white"/>
<path d="M237 105C237 104.448 237.448 104 238 104C238.552 104 239 104.448 239 105V123C239 123.552 238.552 124 238 124C237.448 124 237 123.552 237 123V105Z" fill="white" fill-opacity="0.4"/>
<path d="M237 127C237 126.448 237.448 126 238 126C238.552 126 239 126.448 239 127V211C239 211.552 238.552 212 238 212C237.448 212 237 211.552 237 211V127Z" fill="#FF453A"/>
<path d="M259.667 68C259.667 67.4477 260.115 67 260.667 67C261.219 67 261.667 67.4477 261.667 68V96C261.667 96.5523 261.219 97 260.667 97C260.115 97 259.667 96.5523 259.667 96V68Z" fill="white"/>
<path d="M259.667 100C259.667 99.4477 260.115 99 260.667 99C261.219 99 261.667 99.4477 261.667 100V139C261.667 139.552 261.219 140 260.667 140C260.115 140 259.667 139.552 259.667 139V100Z" fill="white" fill-opacity="0.4"/>
<path d="M259.667 143C259.667 142.448 260.115 142 260.667 142C261.219 142 261.667 142.448 261.667 143V211C261.667 211.552 261.219 212 260.667 212C260.115 212 259.667 211.552 259.667 211V143Z" fill="#FF453A"/>
<path d="M282.333 66C282.333 65.4477 282.781 65 283.333 65C283.886 65 284.333 65.4477 284.333 66V85C284.333 85.5523 283.886 86 283.333 86C282.781 86 282.333 85.5523 282.333 85V66Z" fill="white"/>
<path d="M282.333 89C282.333 88.4477 282.781 88 283.333 88C283.886 88 284.333 88.4477 284.333 89V113C284.333 113.552 283.886 114 283.333 114C282.781 114 282.333 113.552 282.333 113V89Z" fill="white" fill-opacity="0.4"/>
<path d="M282.333 117C282.333 116.448 282.781 116 283.333 116C283.886 116 284.333 116.448 284.333 117V211C284.333 211.552 283.886 212 283.333 212C282.781 212 282.333 211.552 282.333 211V117Z" fill="#FF453A"/>
<path d="M305 36C305 35.4477 305.448 35 306 35C306.552 35 307 35.4477 307 36V67C307 67.5523 306.552 68 306 68C305.448 68 305 67.5523 305 67V36Z" fill="white"/>
<path d="M305 71C305 70.4477 305.448 70 306 70C306.552 70 307 70.4477 307 71V104C307 104.552 306.552 105 306 105C305.448 105 305 104.552 305 104V71Z" fill="white" fill-opacity="0.4"/>
<path d="M305 108C305 107.448 305.448 107 306 107C306.552 107 307 107.448 307 108V211C307 211.552 306.552 212 306 212C305.448 212 305 211.552 305 211V108Z" fill="#FF453A"/>
<path d="M327.667 64C327.667 63.4477 328.115 63 328.667 63C329.219 63 329.667 63.4477 329.667 64V86C329.667 86.5523 329.219 87 328.667 87C328.115 87 327.667 86.5523 327.667 86V64Z" fill="white"/>
<path d="M327.667 90C327.667 89.4477 328.115 89 328.667 89C329.219 89 329.667 89.4477 329.667 90V116C329.667 116.552 329.219 117 328.667 117C328.115 117 327.667 116.552 327.667 116V90Z" fill="white" fill-opacity="0.4"/>
<path d="M327.667 120C327.667 119.448 328.115 119 328.667 119C329.219 119 329.667 119.448 329.667 120V211C329.667 211.552 329.219 212 328.667 212C328.115 212 327.667 211.552 327.667 211V120Z" fill="#FF453A"/>
<path d="M350.333 52C350.333 51.4477 350.781 51 351.333 51C351.886 51 352.333 51.4477 352.333 52V72C352.333 72.5523 351.886 73 351.333 73C350.781 73 350.333 72.5523 350.333 72V52Z" fill="white"/>
<path d="M350.333 76C350.333 75.4477 350.781 75 351.333 75C351.886 75 352.333 75.4477 352.333 76V93C352.333 93.5523 351.886 94 351.333 94C350.781 94 350.333 93.5523 350.333 93V76Z" fill="white" fill-opacity="0.4"/>
<path d="M350.333 97C350.333 96.4477 350.781 96 351.333 96C351.886 96 352.333 96.4477 352.333 97V211C352.333 211.552 351.886 212 351.333 212C350.781 212 350.333 211.552 350.333 211V97Z" fill="#FF453A"/>
<path d="M373 36C373 35.4477 373.448 35 374 35C374.552 35 375 35.4477 375 36V59C375 59.5523 374.552 60 374 60C373.448 60 373 59.5523 373 59V36Z" fill="white"/>
<path d="M373 63C373 62.4477 373.448 62 374 62C374.552 62 375 62.4477 375 63V92C375 92.5523 374.552 93 374 93C373.448 93 373 92.5523 373 92V63Z" fill="white" fill-opacity="0.4"/>
<path d="M373 96C373 95.4477 373.448 95 374 95C374.552 95 375 95.4477 375 96V211C375 211.552 374.552 212 374 212C373.448 212 373 211.552 373 211V96Z" fill="#FF453A"/>
<path d="M395.667 49C395.667 48.4477 396.115 48 396.667 48C397.219 48 397.667 48.4477 397.667 49V79C397.667 79.5523 397.219 80 396.667 80C396.115 80 395.667 79.5523 395.667 79V49Z" fill="white"/>
<path d="M395.667 83C395.667 82.4477 396.115 82 396.667 82C397.219 82 397.667 82.4477 397.667 83V115C397.667 115.552 397.219 116 396.667 116C396.115 116 395.667 115.552 395.667 115V83Z" fill="white" fill-opacity="0.4"/>
<path d="M395.667 119C395.667 118.448 396.115 118 396.667 118C397.219 118 397.667 118.448 397.667 119V211C397.667 211.552 397.219 212 396.667 212C396.115 212 395.667 211.552 395.667 211V119Z" fill="#FF453A"/>
<path d="M418.333 1C418.333 0.447716 418.781 0 419.333 0C419.886 0 420.333 0.447715 420.333 1V24C420.333 24.5523 419.886 25 419.333 25C418.781 25 418.333 24.5523 418.333 24V1Z" fill="white"/>
<path d="M418.333 28C418.333 27.4477 418.781 27 419.333 27C419.886 27 420.333 27.4477 420.333 28V64C420.333 64.5523 419.886 65 419.333 65C418.781 65 418.333 64.5523 418.333 64V28Z" fill="white" fill-opacity="0.4"/>
<path d="M418.333 68C418.333 67.4477 418.781 67 419.333 67C419.886 67 420.333 67.4477 420.333 68V211C420.333 211.552 419.886 212 419.333 212C418.781 212 418.333 211.552 418.333 211V68Z" fill="#FF453A"/>
<path d="M441 24C441 23.4477 441.448 23 442 23C442.552 23 443 23.4477 443 24V49C443 49.5523 442.552 50 442 50C441.448 50 441 49.5523 441 49V24Z" fill="white"/>
<path d="M441 53C441 52.4477 441.448 52 442 52C442.552 52 443 52.4477 443 53V96C443 96.5523 442.552 97 442 97C441.448 97 441 96.5523 441 96V53Z" fill="white" fill-opacity="0.4"/>
<path d="M441 100C441 99.4477 441.448 99 442 99C442.552 99 443 99.4477 443 100V211C443 211.552 442.552 212 442 212C441.448 212 441 211.552 441 211V100Z" fill="#FF453A"/>
<path d="M463.667 36C463.667 35.4477 464.115 35 464.667 35C465.219 35 465.667 35.4477 465.667 36V55C465.667 55.5523 465.219 56 464.667 56C464.115 56 463.667 55.5523 463.667 55V36Z" fill="white"/>
<path d="M463.667 59C463.667 58.4477 464.115 58 464.667 58C465.219 58 465.667 58.4477 465.667 59V100C465.667 100.552 465.219 101 464.667 101C464.115 101 463.667 100.552 463.667 100V59Z" fill="white" fill-opacity="0.4"/>
<path d="M463.667 104C463.667 103.448 464.115 103 464.667 103C465.219 103 465.667 103.448 465.667 104V211C465.667 211.552 465.219 212 464.667 212C464.115 212 463.667 211.552 463.667 211V104Z" fill="#FF453A"/>
<path d="M486.333 16C486.333 15.4477 486.781 15 487.333 15C487.886 15 488.333 15.4477 488.333 16V36C488.333 36.5523 487.886 37 487.333 37C486.781 37 486.333 36.5523 486.333 36V16Z" fill="white"/>
<path d="M486.333 40C486.333 39.4477 486.781 39 487.333 39C487.886 39 488.333 39.4477 488.333 40V85C488.333 85.5523 487.886 86 487.333 86C486.781 86 486.333 85.5523 486.333 85V40Z" fill="white" fill-opacity="0.4"/>
<path d="M486.333 89C486.333 88.4477 486.781 88 487.333 88C487.886 88 488.333 88.4477 488.333 89V211C488.333 211.552 487.886 212 487.333 212C486.781 212 486.333 211.552 486.333 211V89Z" fill="#FF453A"/>
<path d="M509 51C509 50.4477 509.448 50 510 50C510.552 50 511 50.4477 511 51V79C511 79.5523 510.552 80 510 80C509.448 80 509 79.5523 509 79V51Z" fill="white"/>
<path d="M509 83C509 82.4477 509.448 82 510 82C510.552 82 511 82.4477 511 83V111C511 111.552 510.552 112 510 112C509.448 112 509 111.552 509 111V83Z" fill="white" fill-opacity="0.4"/>
<path d="M509 115C509 114.448 509.448 114 510 114C510.552 114 511 114.448 511 115V211C511 211.552 510.552 212 510 212C509.448 212 509 211.552 509 211V115Z" fill="#FF453A"/>
<path d="M531.667 83C531.667 82.4477 532.114 82 532.667 82C533.219 82 533.667 82.4477 533.667 83V105C533.667 105.552 533.219 106 532.667 106C532.114 106 531.667 105.552 531.667 105V83Z" fill="white"/>
<path d="M531.667 109C531.667 108.448 532.114 108 532.667 108C533.219 108 533.667 108.448 533.667 109V133C533.667 133.552 533.219 134 532.667 134C532.114 134 531.667 133.552 531.667 133V109Z" fill="white" fill-opacity="0.4"/>
<path d="M531.667 137C531.667 136.448 532.114 136 532.667 136C533.219 136 533.667 136.448 533.667 137V211C533.667 211.552 533.219 212 532.667 212C532.114 212 531.667 211.552 531.667 211V137Z" fill="#FF453A"/>
<path d="M554.333 51C554.333 50.4477 554.781 50 555.333 50C555.886 50 556.333 50.4477 556.333 51V78C556.333 78.5523 555.886 79 555.333 79C554.781 79 554.333 78.5523 554.333 78V51Z" fill="white"/>
<path d="M554.333 82C554.333 81.4477 554.781 81 555.333 81C555.886 81 556.333 81.4477 556.333 82V100C556.333 100.552 555.886 101 555.333 101C554.781 101 554.333 100.552 554.333 100V82Z" fill="white" fill-opacity="0.4"/>
<path d="M554.333 104C554.333 103.448 554.781 103 555.333 103C555.886 103 556.333 103.448 556.333 104V211C556.333 211.552 555.886 212 555.333 212C554.781 212 554.333 211.552 554.333 211V104Z" fill="#FF453A"/>
<path d="M577 68C577 67.4477 577.448 67 578 67C578.552 67 579 67.4477 579 68V102C579 102.552 578.552 103 578 103C577.448 103 577 102.552 577 102V68Z" fill="white"/>
<path d="M577 106C577 105.448 577.448 105 578 105C578.552 105 579 105.448 579 106V128C579 128.552 578.552 129 578 129C577.448 129 577 128.552 577 128V106Z" fill="white" fill-opacity="0.4"/>
<path d="M577 132C577 131.448 577.448 131 578 131C578.552 131 579 131.448 579 132V211C579 211.552 578.552 212 578 212C577.448 212 577 211.552 577 211V132Z" fill="#FF453A"/>
<path d="M599.667 61C599.667 60.4477 600.114 60 600.667 60C601.219 60 601.667 60.4477 601.667 61V76C601.667 76.5523 601.219 77 600.667 77C600.114 77 599.667 76.5523 599.667 76V61Z" fill="white"/>
<path d="M599.667 80C599.667 79.4477 600.114 79 600.667 79C601.219 79 601.667 79.4477 601.667 80V123C601.667 123.552 601.219 124 600.667 124C600.114 124 599.667 123.552 599.667 123V80Z" fill="white" fill-opacity="0.4"/>
<path d="M599.667 127C599.667 126.448 600.114 126 600.667 126C601.219 126 601.667 126.448 601.667 127V211C601.667 211.552 601.219 212 600.667 212C600.114 212 599.667 211.552 599.667 211V127Z" fill="#FF453A"/>
<path d="M622.333 51C622.333 50.4477 622.781 50 623.333 50C623.886 50 624.333 50.4477 624.333 51V62C624.333 62.5523 623.886 63 623.333 63C622.781 63 622.333 62.5523 622.333 62V51Z" fill="white"/>
<path d="M622.333 66C622.333 65.4477 622.781 65 623.333 65C623.886 65 624.333 65.4477 624.333 66V107C624.333 107.552 623.886 108 623.333 108C622.781 108 622.333 107.552 622.333 107V66Z" fill="white" fill-opacity="0.4"/>
<path d="M622.333 111C622.333 110.448 622.781 110 623.333 110C623.886 110 624.333 110.448 624.333 111V211C624.333 211.552 623.886 212 623.333 212C622.781 212 622.333 211.552 622.333 211V111Z" fill="#FF453A"/>
<path d="M645 39C645 38.4477 645.448 38 646 38C646.552 38 647 38.4477 647 39V62C647 62.5523 646.552 63 646 63C645.448 63 645 62.5523 645 62V39Z" fill="white"/>
<path d="M645 66C645 65.4477 645.448 65 646 65C646.552 65 647 65.4477 647 66V106C647 106.552 646.552 107 646 107C645.448 107 645 106.552 645 106V66Z" fill="white" fill-opacity="0.4"/>
<path d="M645 110C645 109.448 645.448 109 646 109C646.552 109 647 109.448 647 110V211C647 211.552 646.552 212 646 212C645.448 212 645 211.552 645 211V110Z" fill="#FF453A"/>
<path d="M667.667 39C667.667 38.4477 668.114 38 668.667 38C669.219 38 669.667 38.4477 669.667 39V58C669.667 58.5523 669.219 59 668.667 59C668.114 59 667.667 58.5523 667.667 58V39Z" fill="white"/>
<path d="M667.667 62C667.667 61.4477 668.114 61 668.667 61C669.219 61 669.667 61.4477 669.667 62V101C669.667 101.552 669.219 102 668.667 102C668.114 102 667.667 101.552 667.667 101V62Z" fill="white" fill-opacity="0.4"/>
<path d="M667.667 105C667.667 104.448 668.114 104 668.667 104C669.219 104 669.667 104.448 669.667 105V211C669.667 211.552 669.219 212 668.667 212C668.114 212 667.667 211.552 667.667 211V105Z" fill="#FF453A"/>
<path d="M690.333 54C690.333 53.4477 690.781 53 691.333 53C691.886 53 692.333 53.4477 692.333 54V77C692.333 77.5523 691.886 78 691.333 78C690.781 78 690.333 77.5523 690.333 77V54Z" fill="white"/>
<path d="M690.333 81C690.333 80.4477 690.781 80 691.333 80C691.886 80 692.333 80.4477 692.333 81V105C692.333 105.552 691.886 106 691.333 106C690.781 106 690.333 105.552 690.333 105V81Z" fill="white" fill-opacity="0.4"/>
<path d="M690.333 109C690.333 108.448 690.781 108 691.333 108C691.886 108 692.333 108.448 692.333 109V211C692.333 211.552 691.886 212 691.333 212C690.781 212 690.333 211.552 690.333 211V109Z" fill="#FF453A"/>
<path d="M713 33C713 32.4477 713.448 32 714 32C714.552 32 715 32.4477 715 33V55C715 55.5523 714.552 56 714 56C713.448 56 713 55.5523 713 55V33Z" fill="white"/>
<path d="M713 59C713 58.4477 713.448 58 714 58C714.552 58 715 58.4477 715 59V105C715 105.552 714.552 106 714 106C713.448 106 713 105.552 713 105V59Z" fill="white" fill-opacity="0.4"/>
<path d="M713 109C713 108.448 713.448 108 714 108C714.552 108 715 108.448 715 109V211C715 211.552 714.552 212 714 212C713.448 212 713 211.552 713 211V109Z" fill="#FF453A"/>
<path d="M735.667 16C735.667 15.4477 736.115 15 736.667 15C737.219 15 737.667 15.4477 737.667 16V50C737.667 50.5523 737.219 51 736.667 51C736.115 51 735.667 50.5523 735.667 50V16Z" fill="white"/>
<path d="M735.667 54C735.667 53.4477 736.115 53 736.667 53C737.219 53 737.667 53.4477 737.667 54V90C737.667 90.5523 737.219 91 736.667 91C736.115 91 735.667 90.5523 735.667 90V54Z" fill="white" fill-opacity="0.4"/>
<path d="M735.667 94C735.667 93.4477 736.115 93 736.667 93C737.219 93 737.667 93.4477 737.667 94V211C737.667 211.552 737.219 212 736.667 212C736.115 212 735.667 211.552 735.667 211V94Z" fill="#FF453A"/>
<path d="M758.333 16C758.333 15.4477 758.781 15 759.333 15C759.886 15 760.333 15.4477 760.333 16V31C760.333 31.5523 759.886 32 759.333 32C758.781 32 758.333 31.5523 758.333 31V16Z" fill="white"/>
<path d="M758.333 35C758.333 34.4477 758.781 34 759.333 34C759.886 34 760.333 34.4477 760.333 35V78C760.333 78.5523 759.886 79 759.333 79C758.781 79 758.333 78.5523 758.333 78V35Z" fill="white" fill-opacity="0.4"/>
<path d="M758.333 82C758.333 81.4477 758.781 81 759.333 81C759.886 81 760.333 81.4477 760.333 82V211C760.333 211.552 759.886 212 759.333 212C758.781 212 758.333 211.552 758.333 211V82Z" fill="#FF453A"/>
<path d="M781 36C781 35.4477 781.448 35 782 35C782.552 35 783 35.4477 783 36V54C783 54.5523 782.552 55 782 55C781.448 55 781 54.5523 781 54V36Z" fill="white"/>
<path d="M781 58C781 57.4477 781.448 57 782 57C782.552 57 783 57.4477 783 58V99C783 99.5523 782.552 100 782 100C781.448 100 781 99.5523 781 99V58Z" fill="white" fill-opacity="0.4"/>
<path d="M781 103C781 102.448 781.448 102 782 102C782.552 102 783 102.448 783 103V211C783 211.552 782.552 212 782 212C781.448 212 781 211.552 781 211V103Z" fill="#FF453A"/>
<path d="M803.667 46C803.667 45.4477 804.115 45 804.667 45C805.219 45 805.667 45.4477 805.667 46V67C805.667 67.5523 805.219 68 804.667 68C804.115 68 803.667 67.5523 803.667 67V46Z" fill="white"/>
<path d="M803.667 71C803.667 70.4477 804.115 70 804.667 70C805.219 70 805.667 70.4477 805.667 71V107C805.667 107.552 805.219 108 804.667 108C804.115 108 803.667 107.552 803.667 107V71Z" fill="white" fill-opacity="0.4"/>
<path d="M803.667 111C803.667 110.448 804.115 110 804.667 110C805.219 110 805.667 110.448 805.667 111V211C805.667 211.552 805.219 212 804.667 212C804.115 212 803.667 211.552 803.667 211V111Z" fill="#FF453A"/>
<path d="M826.333 68C826.333 67.4477 826.781 67 827.333 67C827.886 67 828.333 67.4477 828.333 68V94C828.333 94.5523 827.886 95 827.333 95C826.781 95 826.333 94.5523 826.333 94V68Z" fill="white"/>
<path d="M826.333 98C826.333 97.4477 826.781 97 827.333 97C827.886 97 828.333 97.4477 828.333 98V112C828.333 112.552 827.886 113 827.333 113C826.781 113 826.333 112.552 826.333 112V98Z" fill="white" fill-opacity="0.4"/>
<path d="M826.333 116C826.333 115.448 826.781 115 827.333 115C827.886 115 828.333 115.448 828.333 116V211C828.333 211.552 827.886 212 827.333 212C826.781 212 826.333 211.552 826.333 211V116Z" fill="#FF453A"/>
<path d="M849 36C849 35.4477 849.448 35 850 35C850.553 35 851 35.4477 851 36V55C851 55.5523 850.553 56 850 56C849.448 56 849 55.5523 849 55V36Z" fill="white"/>
<path d="M849 59C849 58.4477 849.448 58 850 58C850.553 58 851 58.4477 851 59V83C851 83.5523 850.553 84 850 84C849.448 84 849 83.5523 849 83V59Z" fill="white" fill-opacity="0.4"/>
<path d="M849 87C849 86.4477 849.448 86 850 86C850.553 86 851 86.4477 851 87V211C851 211.552 850.553 212 850 212C849.448 212 849 211.552 849 211V87Z" fill="#FF453A"/>
<path d="M871.667 51C871.667 50.4477 872.115 50 872.667 50C873.219 50 873.667 50.4477 873.667 51V68C873.667 68.5523 873.219 69 872.667 69C872.115 69 871.667 68.5523 871.667 68V51Z" fill="white"/>
<path d="M871.667 72C871.667 71.4477 872.115 71 872.667 71C873.219 71 873.667 71.4477 873.667 72V93C873.667 93.5523 873.219 94 872.667 94C872.115 94 871.667 93.5523 871.667 93V72Z" fill="white" fill-opacity="0.4"/>
<path d="M871.667 97C871.667 96.4477 872.115 96 872.667 96C873.219 96 873.667 96.4477 873.667 97V211C873.667 211.552 873.219 212 872.667 212C872.115 212 871.667 211.552 871.667 211V97Z" fill="#FF453A"/>
<path d="M894.333 65C894.333 64.4477 894.781 64 895.333 64C895.886 64 896.333 64.4477 896.333 65V78C896.333 78.5523 895.886 79 895.333 79C894.781 79 894.333 78.5523 894.333 78V65Z" fill="white"/>
<path d="M894.333 82C894.333 81.4477 894.781 81 895.333 81C895.886 81 896.333 81.4477 896.333 82V100C896.333 100.552 895.886 101 895.333 101C894.781 101 894.333 100.552 894.333 100V82Z" fill="white" fill-opacity="0.4"/>
<path d="M894.333 104C894.333 103.448 894.781 103 895.333 103C895.886 103 896.333 103.448 896.333 104V211C896.333 211.552 895.886 212 895.333 212C894.781 212 894.333 211.552 894.333 211V104Z" fill="#FF453A"/>
<path d="M917 56C917 55.4477 917.448 55 918 55C918.553 55 919 55.4477 919 56V83C919 83.5523 918.553 84 918 84C917.448 84 917 83.5523 917 83V56Z" fill="white"/>
<path d="M917 87C917 86.4477 917.448 86 918 86C918.553 86 919 86.4477 919 87V105C919 105.552 918.553 106 918 106C917.448 106 917 105.552 917 105V87Z" fill="white" fill-opacity="0.4"/>
<path d="M917 109C917 108.448 917.448 108 918 108C918.553 108 919 108.448 919 109V211C919 211.552 918.553 212 918 212C917.448 212 917 211.552 917 211V109Z" fill="#FF453A"/>
<path d="M939.667 36C939.667 35.4477 940.115 35 940.667 35C941.219 35 941.667 35.4477 941.667 36V55C941.667 55.5523 941.219 56 940.667 56C940.115 56 939.667 55.5523 939.667 55V36Z" fill="white"/>
<path d="M939.667 59C939.667 58.4477 940.115 58 940.667 58C941.219 58 941.667 58.4477 941.667 59V100C941.667 100.552 941.219 101 940.667 101C940.115 101 939.667 100.552 939.667 100V59Z" fill="white" fill-opacity="0.4"/>
<path d="M939.667 104C939.667 103.448 940.115 103 940.667 103C941.219 103 941.667 103.448 941.667 104V211C941.667 211.552 941.219 212 940.667 212C940.115 212 939.667 211.552 939.667 211V104Z" fill="#FF453A"/>
<path d="M962.333 51C962.333 50.4477 962.781 50 963.333 50C963.886 50 964.333 50.4477 964.333 51V77C964.333 77.5523 963.886 78 963.333 78C962.781 78 962.333 77.5523 962.333 77V51Z" fill="white"/>
<path d="M962.333 81C962.333 80.4477 962.781 80 963.333 80C963.886 80 964.333 80.4477 964.333 81V122C964.333 122.552 963.886 123 963.333 123C962.781 123 962.333 122.552 962.333 122V81Z" fill="white" fill-opacity="0.4"/>
<path d="M962.333 126C962.333 125.448 962.781 125 963.333 125C963.886 125 964.333 125.448 964.333 126V211C964.333 211.552 963.886 212 963.333 212C962.781 212 962.333 211.552 962.333 211V126Z" fill="#FF453A"/>
<path d="M985 62C985 61.4477 985.448 61 986 61C986.553 61 987 61.4477 987 62V81C987 81.5523 986.553 82 986 82C985.448 82 985 81.5523 985 81V62Z" fill="white"/>
<path d="M985 85C985 84.4477 985.448 84 986 84C986.553 84 987 84.4477 987 85V108C987 108.552 986.553 109 986 109C985.448 109 985 108.552 985 108V85Z" fill="white" fill-opacity="0.4"/>
<path d="M985 112C985 111.448 985.448 111 986 111C986.553 111 987 111.448 987 112V211C987 211.552 986.553 212 986 212C985.448 212 985 211.552 985 211V112Z" fill="#FF453A"/>
<path d="M1007.67 36C1007.67 35.4477 1008.11 35 1008.67 35C1009.22 35 1009.67 35.4477 1009.67 36V61C1009.67 61.5523 1009.22 62 1008.67 62C1008.11 62 1007.67 61.5523 1007.67 61V36Z" fill="white"/>
<path d="M1007.67 65C1007.67 64.4477 1008.11 64 1008.67 64C1009.22 64 1009.67 64.4477 1009.67 65V87C1009.67 87.5523 1009.22 88 1008.67 88C1008.11 88 1007.67 87.5523 1007.67 87V65Z" fill="white" fill-opacity="0.4"/>
<path d="M1007.67 91C1007.67 90.4477 1008.11 90 1008.67 90C1009.22 90 1009.67 90.4477 1009.67 91V211C1009.67 211.552 1009.22 212 1008.67 212C1008.11 212 1007.67 211.552 1007.67 211V91Z" fill="#FF453A"/>
<path d="M1030.33 66C1030.33 65.4477 1030.78 65 1031.33 65C1031.89 65 1032.33 65.4477 1032.33 66V82C1032.33 82.5523 1031.89 83 1031.33 83C1030.78 83 1030.33 82.5523 1030.33 82V66Z" fill="white"/>
<path d="M1030.33 86C1030.33 85.4477 1030.78 85 1031.33 85C1031.89 85 1032.33 85.4477 1032.33 86V106C1032.33 106.552 1031.89 107 1031.33 107C1030.78 107 1030.33 106.552 1030.33 106V86Z" fill="white" fill-opacity="0.4"/>
<path d="M1030.33 110C1030.33 109.448 1030.78 109 1031.33 109C1031.89 109 1032.33 109.448 1032.33 110V211C1032.33 211.552 1031.89 212 1031.33 212C1030.78 212 1030.33 211.552 1030.33 211V110Z" fill="#FF453A"/>
<path d="M1053 83C1053 82.4477 1053.45 82 1054 82C1054.55 82 1055 82.4477 1055 83V100C1055 100.552 1054.55 101 1054 101C1053.45 101 1053 100.552 1053 100V83Z" fill="white"/>
<path d="M1053 104C1053 103.448 1053.45 103 1054 103C1054.55 103 1055 103.448 1055 104V126C1055 126.552 1054.55 127 1054 127C1053.45 127 1053 126.552 1053 126V104Z" fill="white" fill-opacity="0.4"/>
<path d="M1053 130C1053 129.448 1053.45 129 1054 129C1054.55 129 1055 129.448 1055 130V211C1055 211.552 1054.55 212 1054 212C1053.45 212 1053 211.552 1053 211V130Z" fill="#FF453A"/>
<path d="M1075.67 77C1075.67 76.4477 1076.11 76 1076.67 76C1077.22 76 1077.67 76.4477 1077.67 77V90C1077.67 90.5523 1077.22 91 1076.67 91C1076.11 91 1075.67 90.5523 1075.67 90V77Z" fill="white"/>
<path d="M1075.67 94C1075.67 93.4477 1076.11 93 1076.67 93C1077.22 93 1077.67 93.4477 1077.67 94V115C1077.67 115.552 1077.22 116 1076.67 116C1076.11 116 1075.67 115.552 1075.67 115V94Z" fill="white" fill-opacity="0.4"/>
<path d="M1075.67 119C1075.67 118.448 1076.11 118 1076.67 118C1077.22 118 1077.67 118.448 1077.67 119V211C1077.67 211.552 1077.22 212 1076.67 212C1076.11 212 1075.67 211.552 1075.67 211V119Z" fill="#FF453A"/>
</svg>
