<svg width="18" height="14" viewBox="0 0 18 14" fill="none" xmlns="http://www.w3.org/2000/svg">
<path d="M17.125 13.25C17.125 13.4158 17.0592 13.5747 16.9419 13.6919C16.8247 13.8092 16.6658 13.875 16.5 13.875H1.5C1.33424 13.875 1.17527 13.8092 1.05806 13.6919C0.940848 13.5747 0.875 13.4158 0.875 13.25V0.75C0.875 0.58424 0.940848 0.425269 1.05806 0.308058C1.17527 0.190848 1.33424 0.125 1.5 0.125C1.66576 0.125 1.82473 0.190848 1.94194 0.308058C2.05915 0.425269 2.125 0.58424 2.125 0.75V8.12266L6.08828 4.65625C6.19613 4.56184 6.33315 4.50737 6.47638 4.50197C6.61961 4.49656 6.76034 4.54055 6.875 4.62656L11.4695 8.07266L16.0883 4.03125C16.1488 3.9713 16.221 3.92437 16.3004 3.89334C16.3797 3.86231 16.4646 3.84784 16.5498 3.85081C16.6349 3.85378 16.7186 3.87414 16.7956 3.91062C16.8726 3.94711 16.9413 3.99896 16.9976 4.06298C17.0538 4.127 17.0963 4.20185 17.1226 4.28292C17.1488 4.36399 17.1582 4.44956 17.1502 4.5344C17.1421 4.61923 17.1168 4.70152 17.0758 4.77622C17.0348 4.85091 16.979 4.91643 16.9117 4.96875L11.9117 9.34375C11.8039 9.43816 11.6669 9.49263 11.5236 9.49803C11.3804 9.50344 11.2397 9.45945 11.125 9.37344L6.53047 5.92891L2.125 9.78359V12.625H16.5C16.6658 12.625 16.8247 12.6908 16.9419 12.8081C17.0592 12.9253 17.125 13.0842 17.125 13.25Z" fill="white"/>
</svg>
