<svg width="20" height="12" viewBox="0 0 20 12" fill="none" xmlns="http://www.w3.org/2000/svg">
<path fill-rule="evenodd" clip-rule="evenodd" d="M11.1823 2.41165L19.5 0L17.4297 8.40916L14.8471 5.9298L10.681 10.2694C10.5396 10.4167 10.3442 10.5 10.14 10.5C9.93578 10.5 9.74039 10.4167 9.59896 10.2694L6.54 7.08298L2.04104 11.7694C1.75419 12.0682 1.27941 12.0779 0.980602 11.791C0.681794 11.5042 0.672104 11.0294 0.95896 10.7306L5.99896 5.4806C6.14039 5.33328 6.33578 5.25 6.54 5.25C6.74422 5.25 6.93961 5.33328 7.08104 5.4806L10.14 8.66702L13.765 4.89101L11.1823 2.41165Z" fill="white"/>
</svg>
